<svg xmlns="http://www.w3.org/2000/svg" xmlns:xlink="http://www.w3.org/1999/xlink" width="309.538" height="263.824" viewBox="0 0 309.538 263.824"><defs><style>.a{fill:url(#a);}.b{opacity:0.5;fill:url(#d);}.c{fill:url(#e);}.d{mix-blend-mode:soft-light;isolation:isolate;}.e{fill:none;}.f{fill:#fff;}.g{fill:#07bdc1;}.h{fill:url(#h);}.i{filter:url(#f);}.j{filter:url(#b);}</style><linearGradient id="a" x1="0.5" y1="1" x2="0.5" gradientUnits="objectBoundingBox"><stop offset="0" stop-color="#181a2a"/><stop offset="1" stop-color="#3b435f" stop-opacity="0"/></linearGradient><filter id="b" x="0" y="0" width="263.824" height="263.824" filterUnits="userSpaceOnUse"><feOffset dy="10" input="SourceAlpha"/><feGaussianBlur stdDeviation="30" result="c"/><feFlood flood-opacity="0.341"/><feComposite operator="in" in2="c"/><feComposite in="SourceGraphic"/></filter><linearGradient id="d" x1="0.5" y1="1" x2="0.449" y2="0.416" gradientUnits="objectBoundingBox"><stop offset="0" stop-color="#737780"/><stop offset="1" stop-color="#737780" stop-opacity="0"/></linearGradient><linearGradient id="e" x1="1" y1="1" x2="0" gradientUnits="objectBoundingBox"><stop offset="0" stop-color="#343b58"/><stop offset="1" stop-color="#181a2a"/></linearGradient><filter id="f" x="74.289" y="14.288" width="235.249" height="235.249" filterUnits="userSpaceOnUse"><feOffset dx="60" dy="10" input="SourceAlpha"/><feGaussianBlur stdDeviation="30" result="g"/><feFlood flood-opacity="0.239"/><feComposite operator="in" in2="g"/><feComposite in="SourceGraphic"/></filter><linearGradient id="h" x1="0.137" y1="-0.116" x2="0.33" y2="0.745" gradientUnits="objectBoundingBox"><stop offset="0" stop-color="#444d71"/><stop offset="1" stop-color="#282b2e" stop-opacity="0"/></linearGradient></defs><g transform="translate(91.912 81.912)"><g class="j" transform="matrix(1, 0, 0, 1, -91.91, -81.91)"><circle class="a" cx="35.912" cy="35.912" r="35.912" transform="translate(96 86)"/></g><circle class="b" cx="29.282" cy="29.282" r="29.282" transform="translate(80 50.718) rotate(150)"/><g transform="translate(12.377 12.375)"><g class="i" transform="matrix(1, 0, 0, 1, -104.29, -94.29)"><circle class="c" cx="27.625" cy="27.625" r="27.625" transform="translate(104.29 94.29)"/></g><g class="d" transform="translate(13.812 13.812)"><path class="e" d="M27.625,0H0V27.625H27.625Z"/><path class="f" d="M8.406,12.024,14.58,5.85,12.953,4.222,4,13.175l8.953,8.953L14.58,20.5,8.406,14.326h14.01v-2.3Z" transform="translate(0.604 0.638)"/></g><g class="d" transform="translate(13.811 13.813)"><path class="e" d="M27.625,0H0V27.625H27.625Z"/><path class="g" d="M8.406,12.024,14.58,5.85,12.953,4.222,4,13.175l8.953,8.953L14.58,20.5,8.406,14.326h14.01v-2.3Z" transform="translate(0.604 0.638)"/></g></g><path class="h" d="M27.626,55.249A27.632,27.632,0,0,1,16.873,2.171,27.632,27.632,0,0,1,38.378,53.078,27.452,27.452,0,0,1,27.626,55.249Zm0-53.591A25.967,25.967,0,1,0,53.592,27.625,26,26,0,0,0,27.626,1.658Z" transform="translate(2.264 29.889) rotate(-30)"/></g></svg>