<svg xmlns="http://www.w3.org/2000/svg" xmlns:xlink="http://www.w3.org/1999/xlink" width="732" height="250" viewBox="0 0 732 250"><defs><style>.a{fill:url(#a);}.b{fill:url(#d);}.c,.g{fill:#fff;}.c{font-size:36px;font-family:Montserrat-SemiBold, Montserrat;font-weight:600;}.d{mix-blend-mode:overlay;fill:url(#g);}.d,.e{isolation:isolate;}.e{opacity:0.7;}.f{fill:none;}.h{fill:url(#j);}.i{clip-path:url(#k);}.j{fill:url(#l);}.k{fill:url(#m);}.l{fill:url(#p);}.m{fill:url(#q);}.n{fill:#242942;}.o{filter:url(#n);}.p{filter:url(#h);}.q{filter:url(#e);}.r{filter:url(#b);}</style><linearGradient id="a" x1="1" y1="1" x2="0" gradientUnits="objectBoundingBox"><stop offset="0" stop-color="#26292e"/><stop offset="1" stop-color="#121416"/></linearGradient><filter id="b" x="0" y="0" width="378" height="315" filterUnits="userSpaceOnUse"><feOffset dx="60" dy="10" input="SourceAlpha"/><feGaussianBlur stdDeviation="30" result="c"/><feFlood flood-opacity="0.239"/><feComposite operator="in" in2="c"/><feComposite in="SourceGraphic"/></filter><linearGradient id="d" x1="1" y1="1" x2="0" gradientUnits="objectBoundingBox"><stop offset="0" stop-color="#242942"/><stop offset="1" stop-color="#171928"/></linearGradient><filter id="e" x="0" y="0" width="732" height="315" filterUnits="userSpaceOnUse"><feOffset dx="60" dy="10" input="SourceAlpha"/><feGaussianBlur stdDeviation="30" result="f"/><feFlood flood-opacity="0.239"/><feComposite operator="in" in2="f"/><feComposite in="SourceGraphic"/></filter><linearGradient id="g" x1="0.5" x2="0.5" y2="1" gradientUnits="objectBoundingBox"><stop offset="0" stop-color="#fff"/><stop offset="1" stop-color="#fff" stop-opacity="0"/></linearGradient><filter id="h" x="496.833" y="130.296" width="54.333" height="53.408" filterUnits="userSpaceOnUse"><feOffset dx="7" dy="7" input="SourceAlpha"/><feGaussianBlur stdDeviation="3.5" result="i"/><feFlood flood-opacity="0.122"/><feComposite operator="in" in2="i"/><feComposite in="SourceGraphic"/></filter><linearGradient id="j" x1="0.5" x2="0.5" y2="1" gradientUnits="objectBoundingBox"><stop offset="0" stop-color="#121416" stop-opacity="0"/><stop offset="1" stop-color="#121416"/></linearGradient><clipPath id="k"><g class="r" transform="matrix(1, 0, 0, 1, 0, 0)"><rect class="a" width="198" height="135" rx="10" transform="translate(634 317)"/></g></clipPath><radialGradient id="l" cx="0.5" cy="0.5" r="0.5" gradientUnits="objectBoundingBox"><stop offset="0" stop-color="#171928"/><stop offset="1" stop-color="#171928"/></radialGradient><linearGradient id="m" x1="-0.436" x2="1" gradientUnits="objectBoundingBox"><stop offset="0" stop-color="#26292e" stop-opacity="0"/><stop offset="1" stop-color="#fff"/></linearGradient><filter id="n" x="25.43" y="70.578" width="191.807" height="224.047" filterUnits="userSpaceOnUse"><feOffset dx="-10" dy="3" input="SourceAlpha"/><feGaussianBlur stdDeviation="20" result="o"/><feFlood flood-opacity="0.4"/><feComposite operator="in" in2="o"/><feComposite in="SourceGraphic"/></filter><linearGradient id="p" x1="1" y1="1" x2="0.107" y2="1" gradientUnits="objectBoundingBox"><stop offset="0" stop-color="#171928"/><stop offset="0.849" stop-color="#242942"/><stop offset="1" stop-color="#242942" stop-opacity="0"/></linearGradient><linearGradient id="q" y1="0.5" x2="1.917" y2="0.5" gradientUnits="objectBoundingBox"><stop offset="0" stop-color="#0ed8d8"/><stop offset="1" stop-color="#045e60"/></linearGradient></defs><g transform="translate(-604 -237)"><g class="q" transform="matrix(1, 0, 0, 1, 604, 237)"><rect class="b" width="552" height="135" rx="10" transform="translate(30 80)"/></g><text class="c" transform="translate(854 398)"><tspan x="0" y="0">Card</tspan></text><g transform="translate(0 157)"><rect class="d" width="3" height="135" transform="translate(1048 160)"/><g class="e" transform="translate(1096 205)"><path class="f" d="M0,0H50V50H0Z"/><g class="p" transform="matrix(1, 0, 0, 1, -492, -125)"><path class="g" d="M29.358,18.343,18.183,7.168l2.946-2.946,16.2,16.2-16.2,16.2-2.946-2.946L29.358,22.51H4V18.343Z" transform="translate(496.33 129.57)"/></g></g></g><rect class="h" width="81" height="13" transform="translate(694 422)"/><g class="i"><g transform="translate(1382.834 722.769) rotate(180)"><path class="j" d="M0,0H130a0,0,0,0,1,0,0V24a6,6,0,0,1-6,6H6a6,6,0,0,1-6-6V0A0,0,0,0,1,0,0Z" transform="translate(582.623 270.743)"/><g transform="translate(611.595 254.143)"><g class="o" transform="matrix(-1, 0, 0, -1, 167.24, 231.63)"><rect class="k" width="104.047" height="71.807" rx="4" transform="translate(95.43 231.63) rotate(-90)"/></g><path class="l" d="M0,0H100.24V12.456H0Z" transform="translate(57.152 3.869) rotate(90)"/><path class="m" d="M33.339,7.327H3.664A3.664,3.664,0,1,1,3.664,0H33.339a3.664,3.664,0,1,1,0,7.327Z" transform="translate(18.393 56.435) rotate(90)"/></g><rect class="n" width="130" height="17" transform="translate(583.052 270.743)"/></g></g></g></svg>