<svg xmlns="http://www.w3.org/2000/svg" xmlns:xlink="http://www.w3.org/1999/xlink" width="552" height="135.002" viewBox="0 0 552 135.002"><defs><style>.a{fill:url(#a);}.b{opacity:0.8;fill:url(#b);}.c{mix-blend-mode:overlay;fill:url(#c);}.c,.d{isolation:isolate;}.d{opacity:0.7;}.e{fill:none;}.f{fill:#fff;}.g{filter:url(#d);}</style><linearGradient id="a" x1="1" y1="1" x2="0" gradientUnits="objectBoundingBox"><stop offset="0" stop-color="#242942"/><stop offset="1" stop-color="#171928"/></linearGradient><linearGradient id="b" x2="0.144" y2="0.454" gradientUnits="objectBoundingBox"><stop offset="0" stop-color="#4f6187"/><stop offset="1" stop-color="#282b2e" stop-opacity="0"/></linearGradient><linearGradient id="c" x1="0.5" x2="0.5" y2="1" gradientUnits="objectBoundingBox"><stop offset="0" stop-color="#fff"/><stop offset="1" stop-color="#fff" stop-opacity="0"/></linearGradient><filter id="d" x="466.833" y="50.297" width="54.333" height="53.408" filterUnits="userSpaceOnUse"><feOffset dx="7" dy="7" input="SourceAlpha"/><feGaussianBlur stdDeviation="3.5" result="e"/><feFlood flood-opacity="0.122"/><feComposite operator="in" in2="e"/><feComposite in="SourceGraphic"/></filter></defs><g transform="translate(-634 -316.999)"><rect class="a" width="552" height="135" rx="10" transform="translate(634 317)"/><path class="b" d="M19662-7665h-532a9.924,9.924,0,0,1-7.068-2.929A9.942,9.942,0,0,1,19120-7675v-115a9.942,9.942,0,0,1,2.926-7.073A9.923,9.923,0,0,1,19130-7800h532a10.015,10.015,0,0,1,10,10v115A10.014,10.014,0,0,1,19662-7665Zm-529-132a10.013,10.013,0,0,0-10,10v109a10.011,10.011,0,0,0,10,10h526a10.009,10.009,0,0,0,10-10v-109a10.011,10.011,0,0,0-10-10Z" transform="translate(-18486 8117)"/><g transform="translate(0 157)"><rect class="c" width="3" height="135" transform="translate(1048 160)"/><g class="d" transform="translate(1096 205)"><path class="e" d="M0,0H50V50H0Z"/><g class="g" transform="matrix(1, 0, 0, 1, -462, -45)"><path class="f" d="M29.358,18.343,18.183,7.168l2.946-2.946,16.2,16.2-16.2,16.2-2.946-2.946L29.358,22.51H4V18.343Z" transform="translate(466.33 49.58)"/></g></g></g></g></svg>