<?xml version="1.0" encoding="utf-8"?>
<!-- Generator: Adobe Illustrator 23.0.2, SVG Export Plug-In . SVG Version: 6.00 Build 0)  -->
<svg version="1.1" id="Layer_1" xmlns="http://www.w3.org/2000/svg" xmlns:xlink="http://www.w3.org/1999/xlink" x="0px" y="0px"
	 viewBox="0 0 80.5 80.5" style="enable-background:new 0 0 80.5 80.5;" xml:space="preserve">
<style type="text/css">
	.st0{fill:#171928;}
	.st1{fill:url(#SVGID_1_);}
</style>
<circle class="st0" cx="40.2" cy="40.3" r="34.7"/>
<g transform="matrix(1, 0, 0, 1, 0, 0)">
	
		<linearGradient id="SVGID_1_" gradientUnits="userSpaceOnUse" x1="-303.3072" y1="213.5222" x2="-302.8626" y2="212.6261" gradientTransform="matrix(55.217 0 0 -55.2114 16775.5703 11804.1611)">
		<stop  offset="0" style="stop-color:#0ED8D8"/>
		<stop  offset="1" style="stop-color:#045E60"/>
	</linearGradient>
	<path class="st1" d="M17.7,56.1L17.7,56.1c-4.2-6-5.9-13.4-4.6-20.6l0-0.1c1.3-7.2,5.3-13.6,11.3-17.8c6-4.2,13.4-5.9,20.6-4.6
		c7.2,1.3,13.6,5.3,17.8,11.3c4.2,6,5.9,13.4,4.6,20.6l0,0c-1.3,7.2-5.3,13.6-11.3,17.8c-4.6,3.3-10.2,5-15.8,5
		C31.3,67.9,22.8,63.5,17.7,56.1z M25.7,19.6c-5.5,3.8-9.2,9.7-10.4,16.3c-1.2,6.6,0.3,13.4,4.2,18.9c3.8,5.5,9.7,9.2,16.3,10.4
		c6.6,1.2,13.4-0.3,18.9-4.2c5.5-3.8,9.2-9.7,10.4-16.2c0,0,0,0,0-0.1l0,0c1.2-6.6-0.3-13.4-4.2-18.9c-3.8-5.5-9.7-9.2-16.3-10.4
		c-1.5-0.3-3-0.4-4.4-0.4C35,15,30,16.6,25.7,19.6L25.7,19.6z M32.7,61.1c-8.7-3.2-14.5-11.5-14.6-20.8c0-0.1,0-0.1,0-0.2l0,0
		c0.1-0.3,0.2-0.6,0.5-0.8c0.3-0.2,0.6-0.2,0.9-0.2c0.6,0.1,1,0.6,1,1.2c0,8.3,5.2,15.7,13,18.6c0.3,0.1,0.5,0.3,0.7,0.6
		c0.1,0.3,0.2,0.6,0,0.9c-0.2,0.5-0.6,0.8-1.1,0.8C32.9,61.1,32.8,61.1,32.7,61.1L32.7,61.1z M32.6,53C32.5,53,32.5,53,32.6,53
		l-0.1,0c-3.1-0.6-5.1-3.9-4.5-7.5v0c0.1-0.7,0.4-1.4,0.7-2.1c0.3-0.6,1-0.8,1.6-0.5c0.6,0.3,0.8,1,0.5,1.6
		c-0.2,0.5-0.4,0.9-0.5,1.4l0,0c-0.4,2.3,0.7,4.4,2.5,4.8l4.5-0.1c0.3,0,0.6,0.1,0.8,0.3c0.2,0.2,0.4,0.5,0.4,0.8
		c0,0.6-0.5,1.2-1.1,1.2c0,0,0,0,0,0L32.6,53L32.6,53z M36,48.1c-0.6-0.1-1.1-0.7-0.9-1.4l0.8-4.6v0c0.3-1.5,1.7-2.6,3.2-2.4
		l9.3,0.9c0.3,0,0.6,0.2,0.8,0.4c0.2,0.2,0.3,0.5,0.3,0.9c-0.1,0.6-0.6,1.1-1.3,1.1L38.9,42c-0.3,0-0.6,0.2-0.7,0.5l0,0l-0.6,3.2
		l2.3-0.2c0.3,0,0.6,0.1,0.9,0.3c0.2,0.2,0.4,0.5,0.4,0.8c0,0.3-0.1,0.6-0.3,0.8c-0.2,0.2-0.5,0.4-0.8,0.4l-3.7,0.3h-0.1
		C36.2,48.1,36.1,48.1,36,48.1L36,48.1z M33.3,43c-0.6-0.1-1.1-0.7-0.9-1.4c0.1-0.6,0.7-1.1,1.4-0.9c0.6,0.1,1.1,0.7,0.9,1.4
		c-0.1,0.6-0.6,1-1.2,1C33.4,43,33.3,43,33.3,43L33.3,43z M60,40.3c0-8.3-5.2-15.7-13-18.6c-0.5-0.2-0.8-0.7-0.8-1.3l0,0
		c0.1-0.3,0.2-0.6,0.5-0.8c0.3-0.2,0.6-0.2,0.9-0.2c0.1,0,0.1,0,0.2,0.1c8.7,3.2,14.5,11.5,14.6,20.8c0,0.3-0.1,0.6-0.3,0.8
		c-0.2,0.2-0.5,0.3-0.8,0.3C60.5,41.4,60,40.9,60,40.3C60,40.3,60,40.3,60,40.3L60,40.3z M49.7,39.4L37,38.1c0,0-0.1,0-0.1,0
		c-1.6-0.3-2.7-1.8-2.4-3.5l0.9-5.4c0.3-1.6,1.8-2.7,3.4-2.4l0.1,0l0.1,0l0.1,0l0,0l5.2,1.8c0.3,0.1,0.5,0.3,0.7,0.6
		c0.1,0.3,0.2,0.6,0,0.9c-0.2,0.6-0.9,0.9-1.5,0.7l-5.1-1.8c-0.3,0-0.6,0.2-0.7,0.5L36.8,35c-0.1,0.3,0.2,0.7,0.5,0.8l12.7,1.3
		c0.6,0.1,1.1,0.6,1,1.3c-0.1,0.6-0.6,1.1-1.2,1.1C49.8,39.4,49.7,39.4,49.7,39.4L49.7,39.4z M32.1,39.1c-0.6-0.1-1.1-0.7-0.9-1.4
		c0.1-0.6,0.7-1.1,1.4-0.9c0.6,0.1,1.1,0.7,0.9,1.4c-0.1,0.6-0.6,1-1.2,1C32.3,39.1,32.2,39.1,32.1,39.1L32.1,39.1z"/>
</g>
</svg>
