<svg xmlns="http://www.w3.org/2000/svg" width="75.87" height="12" viewBox="0 0 75.87 12"><defs><style>.a{opacity:0.9;isolation:isolate;}.b{fill:#fff;}</style></defs><g class="a" transform="translate(-621.236 -2520.215)"><path class="b" d="M660.6,2527.145v6.119l-1.453.064a50.86,50.86,0,0,1-.16-9.281h2.569l2.949,7.072c1.17-2.432,1.974-4.766,3.02-7.1h2.61v9.2h-1.781v-5.725l-.293-.055-2.5,5.825h-2.027l-2.643-6.17Z" transform="translate(-26.968 -2.727)"/><path class="b" d="M752.625,2533c0-.694.023-1.347,0-2-.064-1.507-.691-2.114-2.2-2.149-.463-.011-.926,0-1.424,0v-.73c.453-.024.867-.054,1.282-.065s.846,0,1.181,0c1.6-1.2,1.618-2.21.12-3.443h-3.492v8.415h-2.073a49.621,49.621,0,0,1-.143-9.184c.338-.035.7-.1,1.053-.105q2.478-.016,4.956,0c1.537.009,2.383.514,2.825,1.653.427,1.1.12,1.964-1.14,3.1,1.522,1.157,1.239,2.8,1.211,4.51Z" transform="translate(-89.237 -2.514)"/><path class="b" d="M861.015,2530.515h-1.4l-2.86-3.259-3.9,4.959H850.08l4.88-6.462-4.677-5.538h1.74l4.09,4.7,2.845-3.649h2.169c-1.153,1.782-2.522,3.245-3.708,4.989Z" transform="translate(-164.02)"/><path class="b" d="M713.842,2533.2h-2.163l-.712-1.9h-3.489l-.649,1.9h-2.153c.931-3.185,1.964-6.216,3.009-9.27h3.121Zm-4.48-7.766-.252.028-1.4,4.854h3.1Z" transform="translate(-59.804 -2.661)"/><path class="b" d="M621.787,2533.127l.125-.775h4.748c1.27-1.062,1.363-1.443.833-2.946a2.7,2.7,0,0,0-1.84-.54c-.707-.01-1.418.028-2.122-.021a2.479,2.479,0,0,1-2.294-2.438,2.525,2.525,0,0,1,2.124-2.609c1.777-.093,3.562-.025,5.386-.025v.736h-4.073c-1.646,1.147-1.672,2-.125,3.251.874,0,1.862-.019,2.85,0a2.357,2.357,0,0,1,2.538,2.565,2.528,2.528,0,0,1-2.523,2.792C625.584,2533.154,623.754,2533.127,621.787,2533.127Z" transform="translate(0 -2.532)"/><path class="b" d="M820.17,2523.974h6.952l.039.735h-4.714v3.465H825.4v.813h-2.969v3.479H827.1l.055.75H820.17Z" transform="translate(-142.583 -2.694)"/><path class="b" d="M789.494,2533.168h-2.321v-8.516h-2.906v-.745h8.374l-.065.7H789.56c-.024,1.015-.054,1.936-.065,2.857-.011.944,0,1.888,0,2.832Z" transform="translate(-116.85 -2.646)"/></g></svg>