<svg xmlns="http://www.w3.org/2000/svg" xmlns:xlink="http://www.w3.org/1999/xlink" width="284.133" height="284.133" viewBox="0 0 284.133 284.133"><defs><style>.a{fill:none;}.b{opacity:0.37;fill:url(#a);}.c{fill:url(#b);}.d{isolation:isolate;}.e{fill:#fff;}.f{fill:url(#e);}.g{filter:url(#c);}</style><linearGradient id="a" x1="0.5" y1="1" x2="0.449" y2="0.416" gradientUnits="objectBoundingBox"><stop offset="0" stop-color="#ebf9ff"/><stop offset="1" stop-color="#ebf9ff" stop-opacity="0"/></linearGradient><linearGradient id="b" x1="0.257" y1="0.057" x2="0.702" y2="0.954" gradientUnits="objectBoundingBox"><stop offset="0" stop-color="#045e60"/><stop offset="1" stop-color="#0ed8d8"/></linearGradient><filter id="c" x="69.568" y="79.567" width="145" height="145" filterUnits="userSpaceOnUse"><feOffset dy="10" input="SourceAlpha"/><feGaussianBlur stdDeviation="7.5" result="d"/><feFlood flood-opacity="0.239"/><feComposite operator="in" in2="d"/><feComposite in="SourceGraphic"/></filter><linearGradient id="e" x1="0.5" x2="0.5" y2="1" gradientUnits="objectBoundingBox"><stop offset="0" stop-color="#bbd7e3"/><stop offset="1" stop-color="#ebf9ff" stop-opacity="0"/></linearGradient></defs><g transform="translate(-1109.932 -515.933)"><circle class="a" cx="65" cy="65" r="65" transform="translate(1187 593)"/><circle class="b" cx="53" cy="53" r="53" transform="translate(1324.398 677.399) rotate(150)"/><g class="g" transform="matrix(1, 0, 0, 1, 1109.93, 515.93)"><circle class="c" cx="50" cy="50" r="50" transform="translate(92.07 92.07)"/></g><g class="d" transform="translate(1227 633)"><path class="a" d="M0,0H50V50H0Z"/><path class="e" d="M29.358,18.343,18.183,7.168l2.946-2.946,16.2,16.2-16.2,16.2-2.946-2.946L29.358,22.51H4V18.343Z" transform="translate(4.333 4.574)"/></g><path class="f" d="M20784-7700a49.677,49.677,0,0,1-19.461-3.93,49.82,49.82,0,0,1-15.895-10.717,49.84,49.84,0,0,1-10.717-15.893A49.668,49.668,0,0,1,20734-7750a49.672,49.672,0,0,1,3.93-19.464,49.845,49.845,0,0,1,10.717-15.893,49.833,49.833,0,0,1,15.895-10.716A49.685,49.685,0,0,1,20784-7800a49.685,49.685,0,0,1,19.461,3.929,49.833,49.833,0,0,1,15.895,10.716,49.845,49.845,0,0,1,10.717,15.893A49.672,49.672,0,0,1,20834-7750a49.668,49.668,0,0,1-3.93,19.462,49.84,49.84,0,0,1-10.717,15.893,49.82,49.82,0,0,1-15.895,10.717A49.677,49.677,0,0,1,20784-7700Zm0-97a47.053,47.053,0,0,0-47,47,47.053,47.053,0,0,0,47,47,47.053,47.053,0,0,0,47-47A47.053,47.053,0,0,0,20784-7797Z" transform="translate(-12872.473 17761.697) rotate(-30)"/></g></svg>