<svg xmlns="http://www.w3.org/2000/svg" xmlns:xlink="http://www.w3.org/1999/xlink" width="169.337" height="274.207" viewBox="0 0 169.337 274.207"><defs><style>.a{isolation:isolate;}.b{fill:#171928;}.c{fill:url(#a);}.d{fill:url(#b);}.e{filter:url(#c);}</style><linearGradient id="a" x1="0.855" y1="0.147" x2="0.01" y2="0.966" gradientUnits="objectBoundingBox"><stop offset="0" stop-color="#242942" stop-opacity="0"/><stop offset="1" stop-color="#fff"/></linearGradient><linearGradient id="b" x1="0.257" y1="0.057" x2="0.702" y2="0.954" gradientUnits="objectBoundingBox"><stop offset="0" stop-color="#0ed8d8"/><stop offset="1" stop-color="#045e60"/></linearGradient><filter id="c" x="0" y="63.053" width="169.337" height="169.331" filterUnits="userSpaceOnUse"><feOffset dy="10" input="SourceAlpha"/><feGaussianBlur stdDeviation="7.5" result="d"/><feFlood flood-opacity="0.239"/><feComposite operator="in" in2="d"/><feComposite in="SourceGraphic"/></filter></defs><g class="a" transform="translate(153.158 274.207) rotate(180)"><rect class="b" width="274.207" height="133.988" rx="4" transform="translate(136.197 0) rotate(90)"/><rect class="c" width="258.627" height="118.408" rx="4" transform="translate(128.409 7.79) rotate(90)"/><circle class="b" cx="63.878" cy="63.878" r="63.878" transform="translate(0 79.035) rotate(-5)"/><g class="e" transform="matrix(-1, 0, 0, -1, 153.16, 274.21)"><path class="d" d="M9.252,79.947l-.071-.1A50.727,50.727,0,0,1,.754,42.068l.023-.134A50.734,50.734,0,0,1,92.3,21.647a50.4,50.4,0,0,1,8.45,37.9c0,.02-.008.042-.011.062A50.745,50.745,0,0,1,9.252,79.947ZM24.109,12.711a46.431,46.431,0,1,0,72.336,46.22c.008-.041.014-.08.021-.121v0A46.431,46.431,0,0,0,58.8,5.02,46.972,46.972,0,0,0,50.641,4.3,46.1,46.1,0,0,0,24.109,12.711ZM36.842,88.988A40.884,40.884,0,0,1,10.049,50.754a2.124,2.124,0,0,1,.033-.375h0a2.151,2.151,0,0,1,4.27.38A36.55,36.55,0,0,0,38.283,84.934a2.151,2.151,0,0,1,1.3,2.745,2.151,2.151,0,0,1-2.746,1.308ZM36.679,74.2c-.053,0-.1-.008-.149-.016l-.067-.01c-5.728-1.033-9.413-7.24-8.248-13.846l0-.025a14.01,14.01,0,0,1,1.238-3.775,2.151,2.151,0,0,1,3.855,1.911,10.041,10.041,0,0,0-.861,2.635h0c-.737,4.179,1.315,8.123,4.579,8.825l8.3-.19a2.151,2.151,0,0,1,.1,4.3l-8.59.194C36.791,74.2,36.737,74.2,36.679,74.2Zm6.356-9.016a2.154,2.154,0,0,1-1.745-2.492L42.8,54.152l0-.023a5.508,5.508,0,0,1,5.877-4.5l17.056,1.586a2.152,2.152,0,0,1-.4,4.285l-17.04-1.585a1.179,1.179,0,0,0-1.259.977V54.9l-1.027,5.825,4.141-.292a2.15,2.15,0,0,1,2.31,2.01,2.151,2.151,0,0,1-2.01,2.282l-6.887.486q-.077.006-.155.006A2.113,2.113,0,0,1,43.036,65.18Zm-5.089-9.4a2.149,2.149,0,1,1,.375.033A2.154,2.154,0,0,1,37.946,55.777Zm49.178-5.043A36.549,36.549,0,0,0,63.192,16.557a2.148,2.148,0,0,1-1.384-2.393v0a2.15,2.15,0,0,1,2.49-1.745,2.248,2.248,0,0,1,.362.1A40.878,40.878,0,0,1,91.427,50.737a2.151,2.151,0,1,1-4.3,0ZM68.187,49.2l-23.4-2.423c-.05-.005-.1-.013-.151-.021a5.515,5.515,0,0,1-4.462-6.373l1.745-9.9A5.532,5.532,0,0,1,48.216,26l.14.027c.038.008.079.018.115.026s.074.021.11.033l.057.017,9.612,3.4a2.152,2.152,0,0,1-1.433,4.058l-9.391-3.319a1.2,1.2,0,0,0-1.263.987l-1.745,9.9a1.194,1.194,0,0,0,.917,1.378l23.292,2.413a2.151,2.151,0,0,1-.243,4.289Q68.285,49.2,68.187,49.2Zm-32.321-.59a2.15,2.15,0,1,1,.374.033A2.154,2.154,0,0,1,35.867,48.606Z" transform="matrix(-0.97, 0.26, -0.26, -0.97, 146.84, 173.61)"/></g></g></svg>