<svg xmlns="http://www.w3.org/2000/svg" xmlns:xlink="http://www.w3.org/1999/xlink" width="186.671" height="241.804" viewBox="0 0 186.671 241.804"><defs><style>.a{fill:url(#a);}.b{fill:#242942;}.c{fill:#f6f6f6;}.d{filter:url(#b);}</style><linearGradient id="a" x1="0.845" y1="0.629" x2="0" y2="0.114" gradientUnits="objectBoundingBox"><stop offset="0" stop-color="#26292e" stop-opacity="0"/><stop offset="1" stop-color="#fff"/></linearGradient><filter id="b" x="0" y="0" width="186.671" height="241.804" filterUnits="userSpaceOnUse"><feOffset dx="-10" dy="3" input="SourceAlpha"/><feGaussianBlur stdDeviation="20" result="c"/><feFlood flood-opacity="0.4"/><feComposite operator="in" in2="c"/><feComposite in="SourceGraphic"/></filter></defs><g transform="translate(70 56.726)"><g class="d" transform="matrix(1, 0, 0, 1, -70, -56.73)"><rect class="a" width="66.671" height="121.804" rx="6" transform="translate(70 57)"/></g><path class="b" d="M215.087,8H155.943a4.023,4.023,0,0,0-4.017,3.955v9.8l66.766-.077v-9.8A3.618,3.618,0,0,0,215.087,8Z" transform="translate(-152.001 -7.941)"/><path class="b" d="M152,451.858a3.942,3.942,0,0,0,3.942,3.942h59.13a3.942,3.942,0,0,0,3.942-3.942V440.043H152Z" transform="translate(-151.985 -333.598)"/><g transform="translate(27.384 5.865)"><path class="c" d="M273.671,467.963h-8.613a1.971,1.971,0,0,1,0-3.942h8.613a1.971,1.971,0,1,1,0,3.942Z" transform="translate(-263.087 -357.534)"/><circle class="c" cx="1.971" cy="1.971" r="1.971" transform="translate(4.167)"/></g></g></svg>