<svg xmlns="http://www.w3.org/2000/svg" xmlns:xlink="http://www.w3.org/1999/xlink" width="25.244" height="32.802" viewBox="0 0 25.244 32.802"><defs><style>.a{fill:url(#a);}</style><linearGradient id="a" x1="0.257" y1="0.057" x2="0.702" y2="0.954" gradientUnits="objectBoundingBox"><stop offset="0" stop-color="#0ed8d8"/><stop offset="1" stop-color="#045e60"/></linearGradient></defs><g transform="translate(-64.537 -41.444)"><path class="a" d="M318.3,226.232a2.464,2.464,0,0,1-1.742-4.206,5.42,5.42,0,0,0,0-7.665h0a2.464,2.464,0,1,1,3.484-3.484h0a10.348,10.348,0,0,1,0,14.634h0a2.454,2.454,0,0,1-1.742.721Z" transform="translate(-243.049 -160.349)"/><path class="a" d="M352.239,209.016a2.464,2.464,0,0,1-1.742-4.206,17.246,17.246,0,0,0,0-24.39h0a2.464,2.464,0,1,1,3.484-3.484h0a22.174,22.174,0,0,1,0,31.358h0A2.457,2.457,0,0,1,352.239,209.016Z" transform="translate(-270.695 -134.77)"/><circle class="a" cx="3" cy="3" r="3" transform="translate(64.537 55.253)"/></g></svg>