<svg xmlns="http://www.w3.org/2000/svg" xmlns:xlink="http://www.w3.org/1999/xlink" width="255.161" height="366.928" viewBox="0 0 255.161 366.928"><defs><style>.a{fill:url(#a);}.b{fill:#171928;}.c{fill:#f6f6f6;}.d{filter:url(#b);}</style><linearGradient id="a" x1="1.139" y1="0.971" x2="-0.385" y2="-0.265" gradientUnits="objectBoundingBox"><stop offset="0" stop-color="#26292e" stop-opacity="0"/><stop offset="1" stop-color="#fff"/></linearGradient><filter id="b" x="0" y="0" width="255.161" height="366.928" filterUnits="userSpaceOnUse"><feOffset dx="-10" dy="3" input="SourceAlpha"/><feGaussianBlur stdDeviation="20" result="c"/><feFlood flood-opacity="0.4"/><feComposite operator="in" in2="c"/><feComposite in="SourceGraphic"/></filter></defs><g transform="translate(69.848 56.563)"><g class="d" transform="matrix(1, 0, 0, 1, -69.85, -56.56)"><rect class="a" width="135.161" height="246.928" rx="9" transform="translate(70 57)"/></g><path class="b" d="M279.969,8H160.07a8.156,8.156,0,0,0-8.144,8.017V35.889l135.351-.156V15.86C287.277,11.465,284.384,8,279.969,8Z" transform="translate(-151.926 -8)"/><path class="b" d="M152,464a7.991,7.991,0,0,0,7.991,7.991H279.863A7.991,7.991,0,0,0,287.855,464V440.043H152Z" transform="translate(-151.818 -224.371)"/><g transform="translate(55.666 11.771)"><path class="c" d="M284.543,472.012h-17.46a4,4,0,1,1,0-7.991h17.46a4,4,0,1,1,0,7.991Z" transform="translate(-263.087 -248.143)"/><circle class="c" cx="3.996" cy="3.996" r="3.996" transform="translate(8.447)"/></g></g></svg>