<svg xmlns="http://www.w3.org/2000/svg" xmlns:xlink="http://www.w3.org/1999/xlink" width="79.52" height="78.934" viewBox="0 0 79.52 78.934"><defs><style>.a{fill:url(#a);}</style><linearGradient id="a" x1="0.257" y1="0.057" x2="0.702" y2="0.954" gradientUnits="objectBoundingBox"><stop offset="0" stop-color="#0ed8d8"/><stop offset="1" stop-color="#045e60"/></linearGradient></defs><g transform="translate(53.525 58.807)"><path class="a" d="M6.178,40.311A6.177,6.177,0,0,1,1.81,29.766a13.59,13.59,0,0,0,0-19.22h0a6.178,6.178,0,1,1,8.736-8.737h0a25.946,25.946,0,0,1,0,36.692l0,0a6.153,6.153,0,0,1-4.368,1.808Z" transform="translate(-9.132 14.148) rotate(-133)"/><path class="a" d="M6.178,82.246A6.177,6.177,0,0,1,1.81,71.7a43.242,43.242,0,0,0,0-61.154h0a6.178,6.178,0,1,1,8.737-8.736h0a55.6,55.6,0,0,1,0,78.626h0A6.162,6.162,0,0,1,6.178,82.246Z" transform="translate(-35.226 16.908) rotate(-133)"/><ellipse class="a" cx="7.199" cy="7.919" rx="7.199" ry="7.919" transform="translate(14.413 20.127) rotate(-133)"/></g></svg>