<svg xmlns="http://www.w3.org/2000/svg" xmlns:xlink="http://www.w3.org/1999/xlink" width="732" height="625" viewBox="0 0 732 625"><defs><style>.a{fill:url(#a);}.b{fill:url(#d);}.c{fill:url(#j);}.d,.o{fill:#fff;}.d{font-size:36px;font-family:Montserrat-SemiBold, Montserrat;font-weight:600;}.e{clip-path:url(#p);}.f,.l,.m,.q{isolation:isolate;}.g{fill:#171928;}.h{fill:url(#s);}.i{opacity:0.6;}.i,.k{fill:url(#t);}.j{fill:url(#w);}.l{mix-blend-mode:soft-light;}.l,.q{fill:url(#aa);}.m{opacity:0.7;}.n{fill:none;}.p{opacity:0.8;fill:url(#ad);}.q{mix-blend-mode:overlay;}.r{fill:url(#an);}.s{clip-path:url(#ao);}.t{fill:url(#ap);}.u{fill:url(#aq);}.v{fill:url(#at);}.w{fill:url(#au);}.x{fill:#242942;}.y{clip-path:url(#ax);}.z{fill:url(#ay);}.aa{fill:#f6f6f6;}.ab{fill:url(#bh);}.ac{filter:url(#bc);}.ad{filter:url(#az);}.ae{filter:url(#ar);}.af{filter:url(#al);}.ag{filter:url(#ai);}.ah{filter:url(#af);}.ai{filter:url(#ab);}.aj{filter:url(#y);}.ak{filter:url(#u);}.al{filter:url(#q);}.am{filter:url(#n);}.an{filter:url(#k);}.ao{filter:url(#h);}.ap{filter:url(#e);}.aq{filter:url(#b);}</style><linearGradient id="a" x1="1" y1="1" x2="0" gradientUnits="objectBoundingBox"><stop offset="0" stop-color="#191c1f"/><stop offset="1" stop-color="#111214"/></linearGradient><filter id="b" x="0" y="0" width="382" height="315" filterUnits="userSpaceOnUse"><feOffset dx="60" dy="10" input="SourceAlpha"/><feGaussianBlur stdDeviation="30" result="c"/><feFlood flood-opacity="0.239"/><feComposite operator="in" in2="c"/><feComposite in="SourceGraphic"/></filter><linearGradient id="d" x1="1" y1="1" x2="0" gradientUnits="objectBoundingBox"><stop offset="0" stop-color="#26292e"/><stop offset="1" stop-color="#121416"/></linearGradient><filter id="e" x="0" y="155" width="378" height="315" filterUnits="userSpaceOnUse"><feOffset dx="60" dy="10" input="SourceAlpha"/><feGaussianBlur stdDeviation="30" result="f"/><feFlood flood-opacity="0.239"/><feComposite operator="in" in2="f"/><feComposite in="SourceGraphic"/></filter><filter id="h" x="0" y="310" width="732" height="315" filterUnits="userSpaceOnUse"><feOffset dx="60" dy="10" input="SourceAlpha"/><feGaussianBlur stdDeviation="30" result="i"/><feFlood flood-opacity="0.239"/><feComposite operator="in" in2="i"/><feComposite in="SourceGraphic"/></filter><linearGradient id="j" x1="1" y1="1" x2="0" gradientUnits="objectBoundingBox"><stop offset="0" stop-color="#242942"/><stop offset="1" stop-color="#171928"/></linearGradient><filter id="k" x="0" y="310" width="732" height="315" filterUnits="userSpaceOnUse"><feOffset dx="60" dy="10" input="SourceAlpha"/><feGaussianBlur stdDeviation="30" result="l"/><feFlood flood-opacity="0.239"/><feComposite operator="in" in2="l"/><feComposite in="SourceGraphic"/></filter><filter id="n" x="0" y="0" width="732" height="315" filterUnits="userSpaceOnUse"><feOffset dx="60" dy="10" input="SourceAlpha"/><feGaussianBlur stdDeviation="30" result="o"/><feFlood flood-opacity="0.239"/><feComposite operator="in" in2="o"/><feComposite in="SourceGraphic"/></filter><clipPath id="p"><g class="aq" transform="matrix(1, 0, 0, 1, 0, 0)"><rect class="a" width="202" height="135" rx="10" transform="translate(634 160)"/></g></clipPath><filter id="q" x="12.825" y="42.899" width="210.501" height="276.898" filterUnits="userSpaceOnUse"><feOffset dx="-10" dy="3" input="SourceAlpha"/><feGaussianBlur stdDeviation="20" result="r"/><feFlood flood-opacity="0.4"/><feComposite operator="in" in2="r"/><feComposite in="SourceGraphic"/></filter><linearGradient id="s" x1="0.196" y1="0.466" x2="0.115" y2="1.001" gradientUnits="objectBoundingBox"><stop offset="0" stop-color="#26292e" stop-opacity="0"/><stop offset="1" stop-color="#fff"/></linearGradient><linearGradient id="t" x1="0.257" y1="0.057" x2="0.702" y2="0.954" gradientUnits="objectBoundingBox"><stop offset="0" stop-color="#0ed8d8"/><stop offset="1" stop-color="#045e60"/></linearGradient><filter id="u" x="77.568" y="137.929" width="100.219" height="100.198" filterUnits="userSpaceOnUse"><feOffset dy="10" input="SourceAlpha"/><feGaussianBlur stdDeviation="7.5" result="v"/><feFlood flood-opacity="0.239"/><feComposite operator="in" in2="v"/><feComposite in="SourceGraphic"/></filter><linearGradient id="w" x1="0.855" y1="0.147" x2="0.01" y2="0.966" xlink:href="#s"/><filter id="y" x="99.711" y="131.889" width="100.213" height="100.209" filterUnits="userSpaceOnUse"><feOffset dy="10" input="SourceAlpha"/><feGaussianBlur stdDeviation="7.5" result="z"/><feFlood flood-opacity="0.239"/><feComposite operator="in" in2="z"/><feComposite in="SourceGraphic"/></filter><linearGradient id="aa" x1="0.5" x2="0.5" y2="1" gradientUnits="objectBoundingBox"><stop offset="0" stop-color="#fff"/><stop offset="1" stop-color="#fff" stop-opacity="0"/></linearGradient><filter id="ab" x="496.833" y="130.296" width="54.333" height="53.408" filterUnits="userSpaceOnUse"><feOffset dx="7" dy="7" input="SourceAlpha"/><feGaussianBlur stdDeviation="3.5" result="ac"/><feFlood flood-opacity="0.122"/><feComposite operator="in" in2="ac"/><feComposite in="SourceGraphic"/></filter><linearGradient id="ad" x2="0.144" y2="0.454" gradientUnits="objectBoundingBox"><stop offset="0" stop-color="#4f6187"/><stop offset="1" stop-color="#282b2e" stop-opacity="0"/></linearGradient><filter id="af" x="496.833" y="440.296" width="54.333" height="53.408" filterUnits="userSpaceOnUse"><feOffset dx="7" dy="7" input="SourceAlpha"/><feGaussianBlur stdDeviation="3.5" result="ag"/><feFlood flood-opacity="0.122"/><feComposite operator="in" in2="ag"/><feComposite in="SourceGraphic"/></filter><filter id="ai" x="0" y="155" width="732" height="315" filterUnits="userSpaceOnUse"><feOffset dx="60" dy="10" input="SourceAlpha"/><feGaussianBlur stdDeviation="30" result="aj"/><feFlood flood-opacity="0.239"/><feComposite operator="in" in2="aj"/><feComposite in="SourceGraphic"/></filter><filter id="al" x="496.833" y="285.296" width="54.333" height="53.408" filterUnits="userSpaceOnUse"><feOffset dx="7" dy="7" input="SourceAlpha"/><feGaussianBlur stdDeviation="3.5" result="am"/><feFlood flood-opacity="0.122"/><feComposite operator="in" in2="am"/><feComposite in="SourceGraphic"/></filter><linearGradient id="an" x1="0.5" x2="0.5" y2="1" gradientUnits="objectBoundingBox"><stop offset="0" stop-color="#121416" stop-opacity="0"/><stop offset="1" stop-color="#121416"/></linearGradient><clipPath id="ao"><g class="ap" transform="matrix(1, 0, 0, 1, 0, 0)"><rect class="b" width="198" height="135" rx="10" transform="translate(634 317)"/></g></clipPath><radialGradient id="ap" cx="0.5" cy="0.5" r="0.5" gradientUnits="objectBoundingBox"><stop offset="0" stop-color="#171928"/><stop offset="1" stop-color="#171928"/></radialGradient><linearGradient id="aq" x1="-0.436" y1="0" x2="1" y2="0" xlink:href="#s"/><filter id="ar" x="25.43" y="225.578" width="191.807" height="224.047" filterUnits="userSpaceOnUse"><feOffset dx="-10" dy="3" input="SourceAlpha"/><feGaussianBlur stdDeviation="20" result="as"/><feFlood flood-opacity="0.4"/><feComposite operator="in" in2="as"/><feComposite in="SourceGraphic"/></filter><linearGradient id="at" x1="1" y1="1" x2="0.107" y2="1" gradientUnits="objectBoundingBox"><stop offset="0" stop-color="#171928"/><stop offset="0.849" stop-color="#242942"/><stop offset="1" stop-color="#242942" stop-opacity="0"/></linearGradient><linearGradient id="au" x1="0" y1="0.5" x2="1.917" y2="0.5" xlink:href="#t"/><clipPath id="ax"><g class="ao" transform="matrix(1, 0, 0, 1, 0, 0)"><rect class="b" width="552" height="135" rx="10" transform="translate(634 470)"/></g></clipPath><linearGradient id="ay" x1="0.845" y1="0.629" x2="0" y2="0.114" xlink:href="#s"/><filter id="az" x="37.043" y="355.021" width="186.672" height="241.804" filterUnits="userSpaceOnUse"><feOffset dx="-10" dy="3" input="SourceAlpha"/><feGaussianBlur stdDeviation="20" result="ba"/><feFlood flood-opacity="0.4"/><feComposite operator="in" in2="ba"/><feComposite in="SourceGraphic"/></filter><filter id="bc" x="18.464" y="387.269" width="176.173" height="172.231" filterUnits="userSpaceOnUse"><feOffset dx="-10" dy="3" input="SourceAlpha"/><feGaussianBlur stdDeviation="20" result="bd"/><feFlood flood-opacity="0.4"/><feComposite operator="in" in2="bd"/><feComposite in="SourceGraphic"/></filter><linearGradient id="bh" x1="0.257" y1="0.057" x2="0.702" y2="0.954" gradientUnits="objectBoundingBox"><stop offset="0" stop-color="#ebf9ff"/><stop offset="1" stop-color="#6b7075"/></linearGradient></defs><g transform="translate(-604 -80)"><g class="an" transform="matrix(1, 0, 0, 1, 604, 80)"><rect class="c" width="552" height="135" rx="10" transform="translate(30 390)"/></g><g class="am" transform="matrix(1, 0, 0, 1, 604, 80)"><rect class="c" width="552" height="135" rx="10" transform="translate(30 80)"/></g><text class="d" transform="translate(854 241)"><tspan x="0" y="0">Cash</tspan></text><g class="e"><g class="f" transform="translate(16844.229 -4230.212)"><g class="al" transform="matrix(1, 0, 0, 1, -16240.23, 4310.21)"><rect class="g" width="149.129" height="72.87" rx="4" transform="translate(155.15 99.9) rotate(83)"/></g><rect class="h" width="140.655" height="64.396" rx="4" transform="translate(-16088.767 4414.833) rotate(83)"/><circle class="g" cx="34.74" cy="34.74" r="34.74" transform="translate(-16150.869 4458.312) rotate(-7)"/><g class="ak" transform="matrix(1, 0, 0, 1, -16240.23, 4310.21)"><path class="i" d="M2289.585-3517.253l-.053-.042a27.585,27.585,0,0,1-10.39-18.308l-.009-.073a27.416,27.416,0,0,1,5.644-20.349,27.413,27.413,0,0,1,18.381-10.4,27.407,27.407,0,0,1,20.349,5.644,27.411,27.411,0,0,1,10.421,18.367c0,.011,0,.022,0,.034a27.41,27.41,0,0,1-5.623,20.322,27.557,27.557,0,0,1-21.794,10.62A27.458,27.458,0,0,1,2289.585-3517.253Zm13.857-46.848a25.086,25.086,0,0,0-16.822,9.517,25.086,25.086,0,0,0-5.164,18.624,25.084,25.084,0,0,0,9.517,16.821,25.089,25.089,0,0,0,18.625,5.165,25.088,25.088,0,0,0,16.821-9.517,25.247,25.247,0,0,0,5.173-18.557l-.008-.066h0a25.088,25.088,0,0,0-9.518-16.821,25.057,25.057,0,0,0-15.5-5.357A25.66,25.66,0,0,0,2303.442-3564.1Zm1.929,47.163a22.233,22.233,0,0,1-20.013-15.625,1.123,1.123,0,0,1-.042-.2h0a1.166,1.166,0,0,1,.239-.862,1.163,1.163,0,0,1,.78-.441,1.168,1.168,0,0,1,1.263.822,19.877,19.877,0,0,0,17.881,13.97,1.158,1.158,0,0,1,.809.379,1.162,1.162,0,0,1,.306.841,1.172,1.172,0,0,1-1.168,1.118Zm-9.046-13.536v-.014a7.606,7.606,0,0,1,.043-2.16,1.176,1.176,0,0,1,1.338-.959,1.171,1.171,0,0,1,.97,1.34,5.456,5.456,0,0,0-.028,1.508h0c.281,2.29,1.976,4.015,3.784,3.861l4.285-1.418a1.164,1.164,0,0,1,.894.066,1.159,1.159,0,0,1,.584.678,1.17,1.17,0,0,1-.742,1.479l-4.437,1.466c-.023.007-.051.015-.083.022a.807.807,0,0,1-.079.015l-.037.006a5.031,5.031,0,0,1-.594.035C2299.316-3524.549,2296.742-3527.083,2296.326-3530.474Zm7.176-.849-.574-4.679,0-.013a2.994,2.994,0,0,1,2.34-3.276l9.123-1.887a1.161,1.161,0,0,1,.88.168,1.158,1.158,0,0,1,.5.741,1.17,1.17,0,0,1-.909,1.382l-9.114,1.885a.641.641,0,0,0-.5.708v0l.392,3.192,2.107-.81a1.17,1.17,0,0,1,.909.024,1.161,1.161,0,0,1,.612.653,1.16,1.16,0,0,1-.029.895,1.166,1.166,0,0,1-.653.612l-3.5,1.348a1.158,1.158,0,0,1-.277.069,1.136,1.136,0,0,1-.143.009A1.172,1.172,0,0,1,2303.5-3531.323Zm-4.142-4.081a1.171,1.171,0,0,1,1.018-1.3,1.171,1.171,0,0,1,1.3,1.019,1.172,1.172,0,0,1-1.019,1.3,1.177,1.177,0,0,1-.143.009A1.172,1.172,0,0,1,2299.36-3535.4Zm-2.221-3.4a1.171,1.171,0,0,1,1.019-1.3,1.172,1.172,0,0,1,1.3,1.019,1.172,1.172,0,0,1-1.019,1.3,1.185,1.185,0,0,1-.143.009A1.171,1.171,0,0,1,2297.138-3538.8Zm2.238-3.947-.666-5.425a3.008,3.008,0,0,1,2.56-3.329l.077-.008.064-.005h.095l5.539.238a1.165,1.165,0,0,1,.812.378,1.162,1.162,0,0,1,.307.842,1.172,1.172,0,0,1-1.22,1.119l-5.412-.232a.653.653,0,0,0-.5.714l.667,5.425a.65.65,0,0,0,.7.572l12.5-2.449a1.164,1.164,0,0,1,1.359.911,1.173,1.173,0,0,1-.906,1.385l-12.553,2.459-.082.013a3,3,0,0,1-.363.022A3,3,0,0,1,2299.376-3542.75Zm26.065-2.078a19.877,19.877,0,0,0-17.881-13.97,1.169,1.169,0,0,1-1.1-1.025h0a1.167,1.167,0,0,1,.239-.862,1.168,1.168,0,0,1,.78-.442,1.2,1.2,0,0,1,.2-.007,22.23,22.23,0,0,1,20,15.624,1.162,1.162,0,0,1-.086.892,1.159,1.159,0,0,1-.691.569,1.164,1.164,0,0,1-.341.051A1.172,1.172,0,0,1,2325.441-3544.828Z" transform="translate(-2178.86 3717.06)"/></g><rect class="g" width="149.129" height="72.87" rx="4" transform="matrix(-0.174, 0.985, -0.985, -0.174, -16041.294, 4415.524)"/><rect class="j" width="140.655" height="64.396" rx="4" transform="matrix(-0.174, 0.985, -0.985, -0.174, -16046.201, 4418.96)"/><circle class="g" cx="34.74" cy="34.74" r="34.74" transform="matrix(0.985, 0.174, -0.174, 0.985, -16118.304, 4442.383)"/><g class="aj" transform="matrix(1, 0, 0, 1, -16240.23, 4310.21)"><path class="k" d="M2285.174-3521.944l-.039-.056a27.586,27.586,0,0,1-4.583-20.545l.013-.072a27.416,27.416,0,0,1,11.347-17.81,27.406,27.406,0,0,1,20.617-4.569,27.409,27.409,0,0,1,17.81,11.345,27.412,27.412,0,0,1,4.6,20.612l-.005.034a27.411,27.411,0,0,1-11.319,17.79,27.435,27.435,0,0,1-15.815,5A27.583,27.583,0,0,1,2285.174-3521.944Zm8.08-36.566a25.089,25.089,0,0,0-10.385,16.3,25.088,25.088,0,0,0,4.183,18.868,25.091,25.091,0,0,0,16.3,10.385,25.09,25.09,0,0,0,18.868-4.183,25.249,25.249,0,0,0,10.373-16.233c0-.022.008-.044.012-.066h0a25.085,25.085,0,0,0-4.183-18.869,25.082,25.082,0,0,0-16.3-10.384,25.57,25.57,0,0,0-4.438-.39A25.067,25.067,0,0,0,2293.254-3558.51Zm6.925,41.483a22.234,22.234,0,0,1-14.571-20.793,1.16,1.16,0,0,1,.018-.2h0a1.158,1.158,0,0,1,.48-.754,1.159,1.159,0,0,1,.874-.195,1.168,1.168,0,0,1,.968,1.155,19.877,19.877,0,0,0,13.015,18.588,1.16,1.16,0,0,1,.663.6,1.164,1.164,0,0,1,.047.895,1.172,1.172,0,0,1-1.1.779A1.162,1.162,0,0,1,2300.179-3517.027Zm-.088-8.044a.691.691,0,0,1-.081-.009l-.036-.005c-3.116-.562-5.12-3.937-4.486-7.53l0-.013a7.62,7.62,0,0,1,.673-2.053,1.174,1.174,0,0,1,1.56-.526,1.171,1.171,0,0,1,.537,1.565,5.433,5.433,0,0,0-.468,1.433h0c-.4,2.273.715,4.417,2.49,4.8l4.512-.1a1.167,1.167,0,0,1,.835.324,1.164,1.164,0,0,1,.362.819,1.171,1.171,0,0,1-1.143,1.2l-4.672.105Zm3.457-4.9a1.171,1.171,0,0,1-.948-1.356l.818-4.641,0-.014a3,3,0,0,1,3.2-2.449l9.276.863a1.163,1.163,0,0,1,.792.417,1.163,1.163,0,0,1,.264.856,1.171,1.171,0,0,1-1.273,1.057l-9.267-.862a.642.642,0,0,0-.685.532v0l-.559,3.169,2.253-.159a1.17,1.17,0,0,1,.862.289,1.165,1.165,0,0,1,.394.8,1.162,1.162,0,0,1-.29.847,1.163,1.163,0,0,1-.8.4l-3.746.264-.083,0A1.2,1.2,0,0,1,2303.547-3529.975Zm-2.768-5.114a1.172,1.172,0,0,1-.949-1.355,1.172,1.172,0,0,1,1.355-.949,1.171,1.171,0,0,1,.948,1.355,1.172,1.172,0,0,1-1.152.967A1.172,1.172,0,0,1,2300.78-3535.088Zm26.745-2.743a19.876,19.876,0,0,0-13.016-18.587,1.169,1.169,0,0,1-.752-1.3v0a1.163,1.163,0,0,1,.481-.754,1.155,1.155,0,0,1,.874-.194,1.113,1.113,0,0,1,.2.052,22.23,22.23,0,0,1,14.557,20.788,1.163,1.163,0,0,1-.344.828,1.163,1.163,0,0,1-.827.342A1.172,1.172,0,0,1,2327.525-3537.832Zm-10.3-.836-12.724-1.319c-.027,0-.055-.006-.082-.012a3,3,0,0,1-2.427-3.466l.949-5.384a3.009,3.009,0,0,1,3.422-2.435l.077.014.062.014.059.018.031.009,5.228,1.847a1.168,1.168,0,0,1,.666.6,1.164,1.164,0,0,1,.047.894,1.17,1.17,0,0,1-1.492.714l-5.108-1.8a.652.652,0,0,0-.687.536l-.95,5.383a.651.651,0,0,0,.5.751l12.667,1.312a1.164,1.164,0,0,1,1.033,1.267,1.172,1.172,0,0,1-1.165,1.065C2317.3-3538.663,2317.262-3538.665,2317.227-3538.668Zm-17.578-.321a1.171,1.171,0,0,1-.949-1.354,1.172,1.172,0,0,1,1.356-.949,1.172,1.172,0,0,1,.948,1.355,1.172,1.172,0,0,1-1.151.967A1.2,1.2,0,0,1,2299.648-3538.989Z" transform="translate(-2157.93 3709.81)"/></g></g></g><rect class="l" width="3" height="135" transform="translate(1048 160)"/><g class="m" transform="translate(1096 205)"><path class="n" d="M0,0H50V50H0Z"/><g class="ai" transform="matrix(1, 0, 0, 1, -492, -125)"><path class="o" d="M29.358,18.343,18.183,7.168l2.946-2.946,16.2,16.2-16.2,16.2-2.946-2.946L29.358,22.51H4V18.343Z" transform="translate(496.33 129.57)"/></g></g><path class="p" d="M19662-7665h-532a9.924,9.924,0,0,1-7.068-2.929A9.942,9.942,0,0,1,19120-7675v-115a9.942,9.942,0,0,1,2.926-7.073A9.923,9.923,0,0,1,19130-7800h532a10.015,10.015,0,0,1,10,10v115A10.014,10.014,0,0,1,19662-7665Zm-529-132a10.013,10.013,0,0,0-10,10v109a10.011,10.011,0,0,0,10,10h526a10.009,10.009,0,0,0,10-10v-109a10.011,10.011,0,0,0-10-10Z" transform="translate(-18486 7960)"/><g transform="translate(0 310)"><rect class="q" width="3" height="135" transform="translate(1048 160)"/><g class="m" transform="translate(1096 205)"><path class="n" d="M0,0H50V50H0Z"/><g class="ah" transform="matrix(1, 0, 0, 1, -492, -435)"><path class="o" d="M29.358,18.343,18.183,7.168l2.946-2.946,16.2,16.2-16.2,16.2-2.946-2.946L29.358,22.51H4V18.343Z" transform="translate(496.33 439.57)"/></g></g></g><text class="d" transform="translate(854 551)"><tspan x="0" y="0">NFC</tspan></text><g transform="translate(0 -2)"><g class="ag" transform="matrix(1, 0, 0, 1, 604, 82)"><rect class="c" width="552" height="135" rx="10" transform="translate(30 235)"/></g><text class="d" transform="translate(854 398)"><tspan x="0" y="0">Card</tspan></text><g transform="translate(0 157)"><rect class="q" width="3" height="135" transform="translate(1048 160)"/><g class="m" transform="translate(1096 205)"><path class="n" d="M0,0H50V50H0Z"/><g class="af" transform="matrix(1, 0, 0, 1, -492, -280)"><path class="o" d="M29.358,18.343,18.183,7.168l2.946-2.946,16.2,16.2-16.2,16.2-2.946-2.946L29.358,22.51H4V18.343Z" transform="translate(496.33 284.57)"/></g></g></g><rect class="r" width="81" height="13" transform="translate(694 422)"/><g class="s"><g transform="translate(1382.834 722.769) rotate(180)"><path class="t" d="M0,0H130a0,0,0,0,1,0,0V24a6,6,0,0,1-6,6H6a6,6,0,0,1-6-6V0A0,0,0,0,1,0,0Z" transform="translate(582.623 270.743)"/><g transform="translate(611.595 254.143)"><g class="ae" transform="matrix(-1, 0, 0, -1, 167.24, 386.63)"><rect class="u" width="104.047" height="71.807" rx="4" transform="translate(95.43 386.63) rotate(-90)"/></g><path class="v" d="M0,0H100.24V12.456H0Z" transform="translate(57.152 3.869) rotate(90)"/><path class="w" d="M33.339,7.327H3.664A3.664,3.664,0,1,1,3.664,0H33.339a3.664,3.664,0,1,1,0,7.327Z" transform="translate(18.393 56.435) rotate(90)"/></g><rect class="x" width="130" height="17" transform="translate(583.052 270.743)"/></g></g></g><path class="p" d="M19662-7665h-532a9.924,9.924,0,0,1-7.068-2.929A9.942,9.942,0,0,1,19120-7675v-115a9.942,9.942,0,0,1,2.926-7.073A9.923,9.923,0,0,1,19130-7800h532a10.015,10.015,0,0,1,10,10v115A10.014,10.014,0,0,1,19662-7665Zm-529-132a10.013,10.013,0,0,0-10,10v109a10.011,10.011,0,0,0,10,10h526a10.009,10.009,0,0,0,10-10v-109a10.011,10.011,0,0,0-10-10Z" transform="translate(-18486 8115)"/><path class="p" d="M19662-7665h-532a9.924,9.924,0,0,1-7.068-2.929A9.942,9.942,0,0,1,19120-7675v-115a9.942,9.942,0,0,1,2.926-7.073A9.923,9.923,0,0,1,19130-7800h532a10.015,10.015,0,0,1,10,10v115A10.014,10.014,0,0,1,19662-7665Zm-529-132a10.013,10.013,0,0,0-10,10v109a10.011,10.011,0,0,0,10,10h526a10.009,10.009,0,0,0,10-10v-109a10.011,10.011,0,0,0-10-10Z" transform="translate(-18486 8270)"/><g class="y"><g transform="translate(-295.516 249.175)"><g transform="translate(978.979 242.573)"><g transform="translate(0 0)"><g transform="translate(27.579)"><g class="ad" transform="matrix(1, 0, 0, 1, -107.04, -411.75)"><rect class="z" width="66.671" height="121.804" rx="5" transform="translate(107.04 412.02)"/></g><path class="x" d="M215.087,8H155.943a4.023,4.023,0,0,0-4.017,3.955v9.8l66.766-.077v-9.8A3.618,3.618,0,0,0,215.087,8Z" transform="translate(-152.001 -7.941)"/><path class="x" d="M152,451.858a3.942,3.942,0,0,0,3.942,3.942h59.13a3.942,3.942,0,0,0,3.942-3.942V440.043H152Z" transform="translate(-151.985 -333.598)"/><g transform="translate(27.384 5.865)"><path class="aa" d="M273.671,467.963h-8.613a1.971,1.971,0,0,1,0-3.942h8.613a1.971,1.971,0,1,1,0,3.942Z" transform="translate(-263.087 -357.534)"/><circle class="aa" cx="1.971" cy="1.971" r="1.971" transform="translate(4.167)"/></g></g><g class="ac" transform="matrix(1, 0, 0, 1, -79.46, -411.75)"><path class="u" d="M93.71,140H50.348A10.359,10.359,0,0,0,40,150.348v31.536a10.359,10.359,0,0,0,10.348,10.348H93.71a2.464,2.464,0,0,0,2.464-2.464v-47.3A2.464,2.464,0,0,0,93.71,140Z" transform="translate(48.46 304.27)"/></g><path class="g" d="M218.232,212H206.406A6.413,6.413,0,0,0,200,218.406v3.942a6.413,6.413,0,0,0,6.406,6.406h11.826a2.464,2.464,0,0,0,2.464-2.464V214.464A2.464,2.464,0,0,0,218.232,212Z" transform="translate(-151.58 -161.74)"/><path class="k" d="M318.3,226.232a2.464,2.464,0,0,1-1.742-4.206,5.42,5.42,0,0,0,0-7.665h0a2.464,2.464,0,1,1,3.484-3.484h0a10.348,10.348,0,0,1,0,14.634h0a2.454,2.454,0,0,1-1.742.721Z" transform="translate(-230.047 -160.349)"/><path class="k" d="M352.239,209.016a2.464,2.464,0,0,1-1.742-4.206,17.246,17.246,0,0,0,0-24.39h0a2.464,2.464,0,1,1,3.484-3.484h0a22.174,22.174,0,0,1,0,31.358h0A2.457,2.457,0,0,1,352.239,209.016Z" transform="translate(-257.695 -134.77)"/><circle class="k" cx="3" cy="3" r="3" transform="translate(77.537 55.253)"/></g></g><circle class="ab" cx="4.488" cy="4.488" r="4.488" transform="translate(1032.227 296.697)"/></g></g></g></svg>