<svg xmlns="http://www.w3.org/2000/svg" xmlns:xlink="http://www.w3.org/1999/xlink" width="302" height="78" viewBox="0 0 302 78"><defs><style>.a{fill:#242942;}.b{clip-path:url(#a);}.c,.d,.f{fill:none;}.c{stroke:#171928;}.c,.d{stroke-width:5px;}.d{stroke:#3e4c68;opacity:0.94;}.e{stroke:none;}</style><clipPath id="a"><rect class="a" width="68" height="78" rx="10" transform="translate(233.002 97)"/></clipPath></defs><g transform="translate(-36 -529)"><g class="b" transform="translate(-197.002 432)"><g class="c" transform="translate(233.002 97)"><rect class="e" width="78" height="95" rx="10"/><rect class="f" x="2.5" y="2.5" width="73" height="90" rx="7.5"/></g><g class="d" transform="translate(206.002 86)"><rect class="e" width="100" height="94" rx="10"/><rect class="f" x="2.5" y="2.5" width="95" height="89" rx="7.5"/></g></g><g class="b" transform="translate(36.998 432)"><g class="c" transform="translate(233.002 97)"><rect class="e" width="78" height="95" rx="10"/><rect class="f" x="2.5" y="2.5" width="73" height="90" rx="7.5"/></g><g class="d" transform="translate(206.002 86)"><rect class="e" width="100" height="94" rx="10"/><rect class="f" x="2.5" y="2.5" width="95" height="89" rx="7.5"/></g></g><g class="b" transform="translate(-41.002 432)"><g class="c" transform="translate(233.002 97)"><rect class="e" width="78" height="95" rx="10"/><rect class="f" x="2.5" y="2.5" width="73" height="90" rx="7.5"/></g><g class="d" transform="translate(206.002 86)"><rect class="e" width="100" height="94" rx="10"/><rect class="f" x="2.5" y="2.5" width="95" height="89" rx="7.5"/></g></g><g class="b" transform="translate(-119.002 432)"><g class="c" transform="translate(233.002 97)"><rect class="e" width="78" height="95" rx="10"/><rect class="f" x="2.5" y="2.5" width="73" height="90" rx="7.5"/></g><g class="d" transform="translate(206.002 86)"><rect class="e" width="100" height="94" rx="10"/><rect class="f" x="2.5" y="2.5" width="95" height="89" rx="7.5"/></g></g></g></svg>