<svg xmlns="http://www.w3.org/2000/svg" xmlns:xlink="http://www.w3.org/1999/xlink" width="415" height="147" viewBox="0 0 415 147"><defs><style>.a{fill:url(#a);}.b{fill:#171928;}.c{filter:url(#b);}</style><linearGradient id="a" x1="1" y1="1" x2="0" y2="1" gradientUnits="objectBoundingBox"><stop offset="0" stop-color="#171928" stop-opacity="0"/><stop offset="0.364" stop-color="#171928"/><stop offset="0.502" stop-color="#171928"/><stop offset="0.632" stop-color="#171928"/><stop offset="1" stop-color="#171928" stop-opacity="0"/></linearGradient><filter id="b" x="0" y="0" width="415" height="147" filterUnits="userSpaceOnUse"><feOffset dy="3" input="SourceAlpha"/><feGaussianBlur stdDeviation="3" result="c"/><feFlood flood-opacity="0.4"/><feComposite operator="in" in2="c"/><feComposite in="SourceGraphic"/></filter></defs><g transform="translate(-196 -162)"><g class="c" transform="matrix(1, 0, 0, 1, 196, 162)"><path class="a" d="M54,0H343a54,54,0,0,1,54,54v75a0,0,0,0,1,0,0H0a0,0,0,0,1,0,0V54A54,54,0,0,1,54,0Z" transform="translate(9 6)"/></g><path class="b" d="M54,0H343a54,54,0,0,1,54,54v75a0,0,0,0,1,0,0H0a0,0,0,0,1,0,0V54A54,54,0,0,1,54,0Z" transform="translate(205 168)"/></g></svg>