<svg xmlns="http://www.w3.org/2000/svg" xmlns:xlink="http://www.w3.org/1999/xlink" width="100.213" height="100.208" viewBox="0 0 100.213 100.208"><defs><style>.a{fill:url(#a);}.b{filter:url(#b);}</style><linearGradient id="a" x1="0.257" y1="0.057" x2="0.702" y2="0.954" gradientUnits="objectBoundingBox"><stop offset="0" stop-color="#0ed8d8"/><stop offset="1" stop-color="#045e60"/></linearGradient><filter id="b" x="0" y="0" width="100.213" height="100.208" filterUnits="userSpaceOnUse"><feOffset dy="10" input="SourceAlpha"/><feGaussianBlur stdDeviation="7.5" result="c"/><feFlood flood-opacity="0.239"/><feComposite operator="in" in2="c"/><feComposite in="SourceGraphic"/></filter></defs><g class="b" transform="matrix(1, 0, 0, 1, 0, 0)"><path class="a" d="M2285.174-3521.944l-.039-.056a27.586,27.586,0,0,1-4.583-20.545l.013-.072a27.416,27.416,0,0,1,11.347-17.81,27.406,27.406,0,0,1,20.617-4.569,27.409,27.409,0,0,1,17.81,11.345,27.412,27.412,0,0,1,4.6,20.612l-.005.034a27.411,27.411,0,0,1-11.319,17.79,27.435,27.435,0,0,1-15.815,5A27.583,27.583,0,0,1,2285.174-3521.944Zm8.08-36.566a25.089,25.089,0,0,0-10.385,16.3,25.088,25.088,0,0,0,4.183,18.868,25.091,25.091,0,0,0,16.3,10.385,25.09,25.09,0,0,0,18.868-4.183,25.249,25.249,0,0,0,10.373-16.233c0-.022.008-.044.012-.066h0a25.085,25.085,0,0,0-4.183-18.869,25.082,25.082,0,0,0-16.3-10.384,25.57,25.57,0,0,0-4.438-.39A25.067,25.067,0,0,0,2293.254-3558.51Zm6.925,41.483a22.234,22.234,0,0,1-14.571-20.793,1.16,1.16,0,0,1,.018-.2h0a1.158,1.158,0,0,1,.48-.754,1.159,1.159,0,0,1,.874-.195,1.168,1.168,0,0,1,.968,1.155,19.877,19.877,0,0,0,13.015,18.588,1.16,1.16,0,0,1,.663.6,1.164,1.164,0,0,1,.047.895,1.172,1.172,0,0,1-1.1.779A1.162,1.162,0,0,1,2300.179-3517.027Zm-.088-8.044a.691.691,0,0,1-.081-.009l-.036-.005c-3.116-.562-5.12-3.937-4.486-7.53l0-.013a7.62,7.62,0,0,1,.673-2.053,1.174,1.174,0,0,1,1.56-.526,1.171,1.171,0,0,1,.537,1.565,5.433,5.433,0,0,0-.468,1.433h0c-.4,2.273.715,4.417,2.49,4.8l4.512-.1a1.167,1.167,0,0,1,.835.324,1.164,1.164,0,0,1,.362.819,1.171,1.171,0,0,1-1.143,1.2l-4.672.105Zm3.457-4.9a1.171,1.171,0,0,1-.948-1.356l.818-4.641,0-.014a3,3,0,0,1,3.2-2.449l9.276.863a1.163,1.163,0,0,1,.792.417,1.163,1.163,0,0,1,.264.856,1.171,1.171,0,0,1-1.273,1.057l-9.267-.862a.642.642,0,0,0-.685.532v0l-.559,3.169,2.253-.159a1.17,1.17,0,0,1,.862.289,1.165,1.165,0,0,1,.394.8,1.162,1.162,0,0,1-.29.847,1.163,1.163,0,0,1-.8.4l-3.746.264-.083,0A1.2,1.2,0,0,1,2303.547-3529.975Zm-2.768-5.114a1.172,1.172,0,0,1-.949-1.355,1.172,1.172,0,0,1,1.355-.949,1.171,1.171,0,0,1,.948,1.355,1.172,1.172,0,0,1-1.152.967A1.172,1.172,0,0,1,2300.78-3535.088Zm26.745-2.743a19.876,19.876,0,0,0-13.016-18.587,1.169,1.169,0,0,1-.752-1.3v0a1.163,1.163,0,0,1,.481-.754,1.155,1.155,0,0,1,.874-.194,1.113,1.113,0,0,1,.2.052,22.23,22.23,0,0,1,14.557,20.788,1.163,1.163,0,0,1-.344.828,1.163,1.163,0,0,1-.827.342A1.172,1.172,0,0,1,2327.525-3537.832Zm-10.3-.836-12.724-1.319c-.027,0-.055-.006-.082-.012a3,3,0,0,1-2.427-3.466l.949-5.384a3.009,3.009,0,0,1,3.422-2.435l.077.014.062.014.059.018.031.009,5.228,1.847a1.168,1.168,0,0,1,.666.6,1.164,1.164,0,0,1,.047.894,1.17,1.17,0,0,1-1.492.714l-5.108-1.8a.652.652,0,0,0-.687.536l-.95,5.383a.651.651,0,0,0,.5.751l12.667,1.312a1.164,1.164,0,0,1,1.033,1.267,1.172,1.172,0,0,1-1.165,1.065C2317.3-3538.663,2317.262-3538.665,2317.227-3538.668Zm-17.578-.321a1.171,1.171,0,0,1-.949-1.354,1.172,1.172,0,0,1,1.356-.949,1.172,1.172,0,0,1,.948,1.355,1.172,1.172,0,0,1-1.151.967A1.2,1.2,0,0,1,2299.648-3538.989Z" transform="translate(-2257.64 3577.92)"/></g></svg>