<svg xmlns="http://www.w3.org/2000/svg" width="155.277" height="155.277" viewBox="0 0 155.277 155.277"><defs><style>.a{fill:#fff;stroke:rgba(0,0,0,0);stroke-miterlimit:10;}</style></defs><g transform="translate(-556.18 -49.543)"><path class="a" d="M148.106,154.277v-6.171h6.171v6.171Zm-80.224,0v-6.171h6.174v-6.17H67.882v6.171H61.712v6.17H55.541v-6.171h6.171v-6.17H49.37v-6.17H61.712v-6.171h6.169v-6.171H61.712v-6.17h6.169V98.74h6.174v24.683H86.4v12.343H80.224v6.17H86.4v6.171H74.056v6.17Zm18.517,0v-6.169H98.739v-6.172H92.567v-18.51h6.172v-6.172H86.4V104.911H80.226V98.739H86.4V92.57H98.739V74.054h6.169V98.739h12.344V92.57h6.169v6.169h6.172V74.054h-6.172V86.395H111.081V67.882h-6.172V55.544H98.739V49.371h12.342v6.172h6.172V49.371h30.854v6.171h6.17V67.883h-6.17v6.17h6.17V92.569h-6.171V74.054h-6.17V67.882h6.17V55.544h-6.17V67.882h-6.17V80.226h6.17V92.57h-6.17v12.341h6.17v6.17H129.594v12.344h6.172v6.169h6.17v6.172h12.343v6.17H123.422v-6.17h6.172v-6.172h-6.172v6.172h-6.169v-6.172h-6.172v18.514h24.685v6.169Zm12.341-18.51h6.169v-6.172H98.739Zm6.169-12.341h18.513V104.911H104.909ZM92.567,111.081h6.172V98.739H92.567Zm24.686-43.2h12.341V55.544h-6.172v6.169h-6.169ZM0,154.276v-43.2H43.2v43.2Zm6.169-6.169H37.026V117.252H6.171Zm6.172-6.171V123.424H30.857v18.511Zm129.592-18.512v-6.171h6.171v6.171Zm-92.566,0V104.911H30.857V98.74H55.541V92.57h6.171v12.342H55.541v6.17h6.171v6.171H55.541v6.17Zm98.736-6.172v-6.17h6.171v6.17Zm-37.025,0v-6.17h6.17v6.17Zm30.855-12.34V98.74h6.171v6.171ZM0,104.911V98.74H24.686v6.171Zm74.055-6.172v-6.17h6.168v6.17Zm-49.37,0v-6.17h6.17V86.4H43.2V80.225H49.37V86.4h6.171V92.57H30.858v6.17Zm37.026-6.17V86.4H74.057V92.57ZM0,92.57V86.4h6.17V80.225h6.171V86.4h6.17V92.57ZM80.224,86.4V80.224H86.4V74.053h6.168V86.4Zm-55.537,0v-6.17h6.171V86.4Zm37.025-6.17V74.054h6.169v-6.17H55.541V61.714H49.37V55.543H30.858v12.34H12.344v6.171H0V67.882h6.17V61.713H0V55.542H12.344v6.171H24.687V55.542h6.17v-6.17H61.712v6.171H80.223V49.371H61.712V37.027h6.169V43.2h6.174V37.027h6.168V43.2H86.4V61.714H98.74v6.169H86.4v6.17H80.223V61.714H74.056V80.225Zm0-18.511V55.543H55.541v6.171ZM30.857,80.224V74.053H43.2v6.171Zm-12.344,0V74.053h6.172v6.171ZM37.027,67.882V61.713H43.2v6.169ZM12.344,55.542V49.37h6.17v6.171ZM111.081,43.2V0h43.2V43.2Zm6.172-6.172h30.854V6.172H117.253ZM0,43.2V0H43.2V43.2Zm6.169-6.172H37.026V6.172H6.171ZM98.74,43.2V37.027h6.169V43.2ZM86.4,43.2V37.027H80.223V30.858H74.056V24.687h6.168V18.515H86.4v6.172h6.169V43.2Zm-37.028,0V6.173H61.712V18.516H55.541v6.172h6.171V37.027H55.541V43.2Zm18.512-6.171V30.858h6.174v6.169Zm55.541-6.169V12.344h18.513V30.858Zm-111.079,0V12.344H30.857V30.858Zm86.4,0V6.171h6.169V30.857Zm-37.027-6.17V18.515h6.169v6.173Zm12.344-6.173V12.344h6.168v6.171Zm6.169-6.172V6.171H86.4V0h6.168v6.17H86.4v6.17ZM67.882,6.172V0h6.174v6.17Z" transform="translate(556.678 50.043)"/></g></svg>