<svg xmlns="http://www.w3.org/2000/svg" xmlns:xlink="http://www.w3.org/1999/xlink" width="186.002" height="186.002" viewBox="0 0 186.002 186.002"><defs><style>.a{fill:url(#a);}</style><linearGradient id="a" x1="0.081" y1="0.08" x2="0" y2="0.001" gradientUnits="objectBoundingBox"><stop offset="0" stop-color="#0ed8d8" stop-opacity="0"/><stop offset="1" stop-color="#0ed8d8"/></linearGradient></defs><g transform="translate(-95 -353)"><path class="a" d="M186,186H0V0H186V186ZM3.117,3.117V182.883H182.883V3.117Z" transform="translate(95 353)"/><path class="a" d="M186,186H0V0H186V186ZM3.117,3.117V182.883H182.883V3.117Z" transform="translate(95 539) rotate(-90)"/><g transform="translate(376.002 892.002) rotate(180)"><path class="a" d="M186,186H0V0H186V186ZM3.117,3.117V182.883H182.883V3.117Z" transform="translate(95 353)"/><path class="a" d="M186,186H0V0H186V186ZM3.117,3.117V182.883H182.883V3.117Z" transform="translate(95 539) rotate(-90)"/></g></g></svg>