<svg xmlns="http://www.w3.org/2000/svg" xmlns:xlink="http://www.w3.org/1999/xlink" width="312.335" height="312.335" viewBox="0 0 312.335 312.335"><defs><style>.a{opacity:0.12;fill:url(#a);}.b{opacity:0.5;fill:url(#d);}.c{fill:url(#e);}.d{fill:url(#h);}.e{filter:url(#f);}.f{filter:url(#b);}</style><linearGradient id="a" x1="0.5" y1="1" x2="0.5" gradientUnits="objectBoundingBox"><stop offset="0" stop-color="#181a2a"/><stop offset="1" stop-color="#3b435f" stop-opacity="0"/></linearGradient><filter id="b" x="50.401" y="60.401" width="211.531" height="211.531" filterUnits="userSpaceOnUse"><feOffset dy="10" input="SourceAlpha"/><feGaussianBlur stdDeviation="15" result="c"/><feFlood flood-opacity="0.031"/><feComposite operator="in" in2="c"/><feComposite in="SourceGraphic"/></filter><linearGradient id="d" x1="0.5" y1="1" x2="0.449" y2="0.416" gradientUnits="objectBoundingBox"><stop offset="0" stop-color="#737780" stop-opacity="0.561"/><stop offset="1" stop-color="#737780" stop-opacity="0"/></linearGradient><linearGradient id="e" x1="1" y1="1" x2="0" gradientUnits="objectBoundingBox"><stop offset="0" stop-color="#343b58"/><stop offset="1" stop-color="#181a2a"/></linearGradient><filter id="f" x="89.042" y="79.039" width="174.255" height="174.255" filterUnits="userSpaceOnUse"><feOffset dx="20" dy="10" input="SourceAlpha"/><feGaussianBlur stdDeviation="15" result="g"/><feFlood flood-opacity="0.149"/><feComposite operator="in" in2="g"/><feComposite in="SourceGraphic"/></filter><linearGradient id="h" x1="0.137" y1="-0.116" x2="0.33" y2="0.745" gradientUnits="objectBoundingBox"><stop offset="0" stop-color="#444d71"/><stop offset="1" stop-color="#282b2e" stop-opacity="0"/></linearGradient></defs><g transform="translate(95.167 95.167)"><g class="f" transform="matrix(1, 0, 0, 1, -95.17, -95.17)"><circle class="a" cx="54.766" cy="54.766" r="54.766" transform="translate(101.4 101.4)"/></g><circle class="b" cx="44.655" cy="44.655" r="44.655" transform="translate(122 77.345) rotate(150)"/><g transform="translate(18.875 18.872)"><g class="e" transform="matrix(1, 0, 0, 1, -114.04, -114.04)"><circle class="c" cx="42.127" cy="42.127" r="42.127" transform="translate(114.04 114.04)"/></g></g><path class="d" d="M42.128,84.255a42.139,42.139,0,0,1-16.4-80.944,42.138,42.138,0,0,1,32.8,77.634A41.864,41.864,0,0,1,42.128,84.255Zm0-81.727a39.6,39.6,0,1,0,39.6,39.6A39.644,39.644,0,0,0,42.128,2.528Z" transform="translate(3.453 45.581) rotate(-30)"/></g></svg>