<svg xmlns="http://www.w3.org/2000/svg" xmlns:xlink="http://www.w3.org/1999/xlink" width="285.336" height="285.336" viewBox="0 0 285.336 285.336"><defs><style>.a,.e{fill:none;}.b{opacity:0.37;fill:url(#a);}.c{fill:url(#b);}.d{fill:url(#e);}.e{stroke:#f0f2f6;stroke-linecap:round;stroke-linejoin:round;stroke-width:3px;}.f{filter:url(#c);}</style><linearGradient id="a" x1="0.5" y1="1" x2="0.449" y2="0.416" gradientUnits="objectBoundingBox"><stop offset="0" stop-color="#ebf9ff"/><stop offset="1" stop-color="#ebf9ff" stop-opacity="0"/></linearGradient><linearGradient id="b" x1="0.257" y1="0.057" x2="0.947" y2="1" gradientUnits="objectBoundingBox"><stop offset="0" stop-color="#4b0b0b"/><stop offset="1" stop-color="#6b1e1e"/></linearGradient><filter id="c" x="86.669" y="96.668" width="112" height="112" filterUnits="userSpaceOnUse"><feOffset dy="10" input="SourceAlpha"/><feGaussianBlur stdDeviation="7.5" result="d"/><feFlood flood-opacity="0.239"/><feComposite operator="in" in2="d"/><feComposite in="SourceGraphic"/></filter><linearGradient id="e" x1="0.5" x2="0.539" y2="0.736" gradientUnits="objectBoundingBox"><stop offset="0" stop-color="#d29c9c"/><stop offset="1" stop-color="#651b1b"/></linearGradient></defs><g transform="translate(-1084.433 -490.433)"><g transform="translate(1193.733 599.733)"><circle class="a" cx="42.5" cy="42.5" r="42.5" transform="translate(-9.132 -9.132)"/><circle class="b" cx="34.773" cy="34.773" r="34.773" transform="translate(80.868 46.096) rotate(150)"/><g class="f" transform="matrix(1, 0, 0, 1, -109.3, -109.3)"><circle class="c" cx="33.5" cy="33.5" r="33.5" transform="translate(109.17 109.17)"/></g><path class="d" d="M33.591,66.4A33.683,33.683,0,0,1,9.84,56.672,33.087,33.087,0,0,1,2.64,46.12a32.946,32.946,0,0,1,0-25.845A33.087,33.087,0,0,1,9.84,9.723,33.936,33.936,0,0,1,46.666,2.608,33.5,33.5,0,0,1,57.343,9.723a33.087,33.087,0,0,1,7.2,10.552,32.946,32.946,0,0,1,0,25.845,33.087,33.087,0,0,1-7.2,10.552A33.683,33.683,0,0,1,33.591,66.4Zm0-64.4A31.427,31.427,0,0,0,2.018,33.2a31.576,31.576,0,0,0,63.148,0A31.427,31.427,0,0,0,33.591,1.993Z" transform="translate(-12.52 21.074) rotate(-30)"/></g><g transform="translate(1219.767 624.808)"><path class="e" d="M33.628,13.5,18,29.128" transform="translate(-18 -13.5)"/><g transform="translate(0)"><path class="e" d="M18,13.5,33.628,29.128" transform="translate(-18 -13.5)"/></g></g></g></svg>