<svg xmlns="http://www.w3.org/2000/svg" xmlns:xlink="http://www.w3.org/1999/xlink" width="246.208" height="302.873" viewBox="0 0 246.208 302.873"><defs><style>.a{fill:url(#a);}.b{fill:url(#d);}.c{fill:url(#e);}.d{filter:url(#b);}</style><linearGradient id="a" x1="-0.334" y1="0.028" x2="1" gradientUnits="objectBoundingBox"><stop offset="0" stop-color="#242942" stop-opacity="0.741"/><stop offset="1" stop-color="#fff"/></linearGradient><filter id="b" x="0" y="0" width="246.208" height="302.873" filterUnits="userSpaceOnUse"><feOffset dx="-10" dy="3" input="SourceAlpha"/><feGaussianBlur stdDeviation="20" result="c"/><feFlood flood-opacity="0.4"/><feComposite operator="in" in2="c"/><feComposite in="SourceGraphic"/></filter><linearGradient id="d" x1="1" y1="1" x2="-0.304" y2="1" gradientUnits="objectBoundingBox"><stop offset="0" stop-color="#171928"/><stop offset="1" stop-color="#242942" stop-opacity="0.651"/></linearGradient><linearGradient id="e" y1="0.5" x2="1.917" y2="0.5" gradientUnits="objectBoundingBox"><stop offset="0" stop-color="#0ed8d8"/><stop offset="1" stop-color="#045e60"/></linearGradient></defs><g transform="translate(70 57)"><g transform="translate(0)"><g class="d" transform="matrix(1, 0, 0, 1, -70, -57)"><rect class="a" width="182.873" height="126.208" rx="14" transform="translate(196.21 57) rotate(90)"/></g><path class="b" d="M0,0H182.983V21.893H0Z" transform="translate(100.448 0) rotate(90)"/><path class="c" d="M58.6,12.878H6.439A6.439,6.439,0,1,1,6.439,0H58.6a6.439,6.439,0,1,1,0,12.878Z" transform="translate(32.324 99.189) rotate(90)"/></g></g></svg>