<svg xmlns="http://www.w3.org/2000/svg" xmlns:xlink="http://www.w3.org/1999/xlink" width="309.693" height="250.915" viewBox="0 0 309.693 250.915"><defs><style>.a{fill:url(#a);}.b{fill:url(#d);}.c{fill:url(#e);}.d{filter:url(#b);}</style><linearGradient id="a" x1="-0.334" y1="0.972" x2="1" y2="1" gradientUnits="objectBoundingBox"><stop offset="0" stop-color="#242942" stop-opacity="0.741"/><stop offset="1" stop-color="#fff"/></linearGradient><filter id="b" x="0" y="0" width="309.693" height="250.915" filterUnits="userSpaceOnUse"><feOffset dx="-10" dy="3" input="SourceAlpha"/><feGaussianBlur stdDeviation="20" result="c"/><feFlood flood-opacity="0.4"/><feComposite operator="in" in2="c"/><feComposite in="SourceGraphic"/></filter><linearGradient id="d" x1="1" x2="-0.304" gradientUnits="objectBoundingBox"><stop offset="0" stop-color="#171928"/><stop offset="1" stop-color="#242942" stop-opacity="0.651"/></linearGradient><linearGradient id="e" y1="0.5" x2="1.917" y2="0.5" gradientUnits="objectBoundingBox"><stop offset="0" stop-color="#0ed8d8"/><stop offset="1" stop-color="#045e60"/></linearGradient></defs><g transform="translate(305.348 276.045) rotate(180)"><g transform="translate(-7.97 -30.263)"><g transform="translate(53.494 118.393)"><g transform="translate(0 130.915) rotate(-90)"><g transform="translate(0)"><g class="d" transform="matrix(0, -1, 1, 0, -57, 259.82)"><rect class="a" width="189.693" height="130.915" rx="14" transform="translate(70 57)"/></g><path class="b" d="M0,22.71H189.824V0H0Z" transform="translate(81.485 189.824) rotate(-90)"/><path class="c" d="M60.782,0H6.679a6.679,6.679,0,1,0,0,13.359h54.1A6.679,6.679,0,1,0,60.782,0Z" transform="translate(20.171 86.935) rotate(-90)"/></g></g></g></g></g></svg>