<svg xmlns="http://www.w3.org/2000/svg" xmlns:xlink="http://www.w3.org/1999/xlink" width="220.777" height="255.681" viewBox="0 0 220.777 255.681"><defs><style>.a{fill:url(#a);}.b{filter:url(#b);}</style><linearGradient id="a" x1="-0.436" x2="1" gradientUnits="objectBoundingBox"><stop offset="0" stop-color="#26292e" stop-opacity="0"/><stop offset="1" stop-color="#fff"/></linearGradient><filter id="b" x="0" y="0" width="220.777" height="255.681" filterUnits="userSpaceOnUse"><feOffset dx="-10" dy="3" input="SourceAlpha"/><feGaussianBlur stdDeviation="20" result="c"/><feFlood flood-opacity="0.4"/><feComposite operator="in" in2="c"/><feComposite in="SourceGraphic"/></filter></defs><g class="b" transform="matrix(1, 0, 0, 1, 0, 0)"><path class="a" d="M33.958,135.189,27.5,126.9a1.229,1.229,0,0,0-1.331-.444L16.1,129.392a1.252,1.252,0,0,1-1.554-1.58L23,101.657a8.831,8.831,0,0,0,6.268,2.608A8.711,8.711,0,0,0,31.8,103.9l7.156-2.164,5.519,5.076a4.622,4.622,0,0,0,.554.472L36.15,134.8a1.249,1.249,0,0,1-1.2.879A1.227,1.227,0,0,1,33.958,135.189Zm30.731-.416L55.815,107.26c.195-.141.359-.305.554-.472l5.519-5.05,7.156,2.164a9.62,9.62,0,0,0,2.524.361,8.782,8.782,0,0,0,6.268-2.608L86.3,127.784a1.258,1.258,0,0,1-1.554,1.58l-10.067-2.939a1.246,1.246,0,0,0-1.333.444l-6.461,8.294a1.267,1.267,0,0,1-1,.49A1.238,1.238,0,0,1,64.689,134.773ZM49.518,102.405l-7.489-8.348a1.752,1.752,0,0,0-1.942-.416L29.77,98.079A1.689,1.689,0,0,1,27.469,97L24.335,86.209a1.692,1.692,0,0,0-1.554-1.221l-11.205-.472a1.69,1.69,0,0,1-1.608-1.97l1.857-11.067a1.653,1.653,0,0,0-.859-1.775l-9.9-5.3a1.7,1.7,0,0,1-.584-2.47l6.491-9.154a1.709,1.709,0,0,0-.028-1.968L.316,41.746A1.7,1.7,0,0,1,.87,39.279l9.818-5.437a1.679,1.679,0,0,0,.833-1.775L9.5,21.028a1.708,1.708,0,0,1,1.58-2l11.205-.636a1.72,1.72,0,0,0,1.526-1.249L26.774,6.329a1.7,1.7,0,0,1,2.275-1.11L39.423,9.489a1.664,1.664,0,0,0,1.913-.444L48.713.586A1.709,1.709,0,0,1,51.265.558l7.489,8.348a1.749,1.749,0,0,0,1.942.416L71.013,4.885a1.691,1.691,0,0,1,2.3,1.082l3.106,10.816A1.687,1.687,0,0,0,77.974,18l11.205.472a1.691,1.691,0,0,1,1.61,1.97L88.931,31.512a1.659,1.659,0,0,0,.859,1.775l9.9,5.3a1.7,1.7,0,0,1,.582,2.47l-6.489,9.154a1.705,1.705,0,0,0,.026,1.968l6.63,9.071a1.632,1.632,0,0,1-.526,2.439L90.1,69.122a1.677,1.677,0,0,0-.831,1.775l2.024,11.039a1.708,1.708,0,0,1-1.58,2L78.5,84.57a1.725,1.725,0,0,0-1.526,1.249L74.009,96.637a1.694,1.694,0,0,1-2.275,1.108L61.362,93.475a1.666,1.666,0,0,0-1.913.444l-7.379,8.459a1.709,1.709,0,0,1-2.552.028ZM19.952,51.51A30.454,30.454,0,1,0,50.406,21.056,30.5,30.5,0,0,0,19.952,51.51Z" transform="translate(70 57)"/></g></svg>