<svg xmlns="http://www.w3.org/2000/svg" xmlns:xlink="http://www.w3.org/1999/xlink" width="233.878" height="225.887" viewBox="0 0 233.878 225.887"><defs><style>.a{fill:url(#a);}.b{fill:#171928;}.c{fill:url(#d);}.d{filter:url(#b);}</style><linearGradient id="a" x1="-0.436" x2="1" gradientUnits="objectBoundingBox"><stop offset="0" stop-color="#26292e" stop-opacity="0"/><stop offset="1" stop-color="#fff"/></linearGradient><filter id="b" x="0" y="0" width="233.878" height="225.887" filterUnits="userSpaceOnUse"><feOffset dx="-10" dy="3" input="SourceAlpha"/><feGaussianBlur stdDeviation="20" result="c"/><feFlood flood-opacity="0.4"/><feComposite operator="in" in2="c"/><feComposite in="SourceGraphic"/></filter><linearGradient id="d" x1="0.257" y1="0.057" x2="0.702" y2="0.954" gradientUnits="objectBoundingBox"><stop offset="0" stop-color="#ebf9ff"/><stop offset="1" stop-color="#6b7075"/></linearGradient></defs><g transform="translate(70 -8.811)"><g class="d" transform="matrix(1, 0, 0, 1, -70, 8.81)"><path class="a" d="M148.884,140H60.978A21,21,0,0,0,40,160.978v63.932a21,21,0,0,0,20.978,20.978h87.906a5,5,0,0,0,4.995-4.995v-95.9A5,5,0,0,0,148.884,140Z" transform="translate(30 -83)"/></g><path class="b" d="M236.961,212H212.986A13,13,0,0,0,200,224.986v7.991a13,13,0,0,0,12.986,12.986h23.974a5,5,0,0,0,4.995-4.995V216.995A5,5,0,0,0,236.961,212Z" transform="translate(-120.085 -110.228)"/><circle class="c" cx="9.097" cy="9.097" r="9.097" transform="translate(89.7 109.604)"/></g></svg>