<svg xmlns="http://www.w3.org/2000/svg" xmlns:xlink="http://www.w3.org/1999/xlink" width="153.342" height="164.889" viewBox="0 0 153.342 164.889"><defs><style>.a{fill:url(#a);}.b{fill:url(#d);}.c{filter:url(#b);}</style><linearGradient id="a" x1="-0.436" x2="1" gradientUnits="objectBoundingBox"><stop offset="0" stop-color="#26292e" stop-opacity="0"/><stop offset="1" stop-color="#fff"/></linearGradient><filter id="b" x="0" y="0" width="153.342" height="164.889" filterUnits="userSpaceOnUse"><feOffset dx="-10" dy="3" input="SourceAlpha"/><feGaussianBlur stdDeviation="20" result="c"/><feFlood flood-opacity="0.4"/><feComposite operator="in" in2="c"/><feComposite in="SourceGraphic"/></filter><linearGradient id="d" y1="0.5" x2="1.917" y2="0.5" gradientUnits="objectBoundingBox"><stop offset="0" stop-color="#0ed8d8"/><stop offset="1" stop-color="#045e60"/></linearGradient></defs><g transform="translate(70 56.999)"><g transform="translate(0 0.001)"><g class="c" transform="matrix(1, 0, 0, 1, -70, -57)"><path class="a" d="M11.235,44.726,9.1,41.983a.407.407,0,0,0-.44-.147l-3.331.972a.414.414,0,0,1-.514-.523l2.8-8.653a2.922,2.922,0,0,0,2.074.863,2.882,2.882,0,0,0,.835-.12l2.367-.716,1.826,1.679a1.529,1.529,0,0,0,.183.156L11.96,44.6a.413.413,0,0,1-.4.291A.406.406,0,0,1,11.235,44.726ZM21.4,44.589l-2.936-9.1c.064-.047.119-.1.183-.156l1.826-1.671,2.367.716a3.183,3.183,0,0,0,.835.12,2.905,2.905,0,0,0,2.074-.863l2.8,8.644a.416.416,0,0,1-.514.523l-3.331-.972a.412.412,0,0,0-.441.147l-2.138,2.744a.419.419,0,0,1-.331.162A.41.41,0,0,1,21.4,44.589ZM16.383,33.88l-2.478-2.762a.58.58,0,0,0-.642-.137L9.849,32.449a.559.559,0,0,1-.761-.358L8.051,28.522a.56.56,0,0,0-.514-.4L3.83,27.962A.559.559,0,0,1,3.3,27.31l.614-3.661a.547.547,0,0,0-.284-.587L.352,21.309a.563.563,0,0,1-.193-.817l2.148-3.028a.565.565,0,0,0-.009-.651l-2.193-3A.563.563,0,0,1,.288,13l3.248-1.8a.555.555,0,0,0,.276-.587l-.67-3.652A.565.565,0,0,1,3.664,6.3l3.707-.211a.569.569,0,0,0,.5-.413l.982-3.578a.561.561,0,0,1,.753-.367l3.432,1.413a.55.55,0,0,0,.633-.147l2.44-2.8a.565.565,0,0,1,.844-.009l2.478,2.762a.579.579,0,0,0,.642.137l3.414-1.468a.56.56,0,0,1,.762.358l1.028,3.578a.558.558,0,0,0,.513.4l3.707.156a.559.559,0,0,1,.533.652l-.615,3.661a.549.549,0,0,0,.284.587l3.276,1.752a.563.563,0,0,1,.193.817l-2.147,3.028a.564.564,0,0,0,.009.651l2.193,3a.54.54,0,0,1-.174.807l-3.249,1.8a.555.555,0,0,0-.275.587l.67,3.652a.565.565,0,0,1-.523.661l-3.707.211a.571.571,0,0,0-.5.413l-.982,3.579a.56.56,0,0,1-.753.367L20.3,30.926a.551.551,0,0,0-.633.147l-2.441,2.8a.565.565,0,0,1-.844.009ZM6.6,17.042A10.076,10.076,0,1,0,16.677,6.966,10.092,10.092,0,0,0,6.6,17.042Z" transform="translate(70 57)"/></g><path class="b" d="M184.26,115.908l-3.8-.275-1.432-3.524a.8.8,0,0,0-1.477,0l-1.432,3.524-3.8.275a.8.8,0,0,0-.459,1.4l2.909,2.459-.908,3.7a.8.8,0,0,0,1.193.872l3.23-2.01,3.23,2.01a.8.8,0,0,0,1.193-.872l-.908-3.7,2.909-2.459A.794.794,0,0,0,184.26,115.908Z" transform="translate(-161.609 -101.371)"/></g></g></svg>