<svg xmlns="http://www.w3.org/2000/svg" xmlns:xlink="http://www.w3.org/1999/xlink" width="31.957" height="30.604" viewBox="0 0 31.957 30.604"><defs><style>.a{fill:url(#a);}</style><linearGradient id="a" y1="0.5" x2="1.917" y2="0.5" gradientUnits="objectBoundingBox"><stop offset="0" stop-color="#0ed8d8"/><stop offset="1" stop-color="#045e60"/></linearGradient></defs><path class="a" d="M201.779,121.841l-9.048-.656-3.409-8.393a1.9,1.9,0,0,0-3.519,0l-3.409,8.393-9.048.656a1.9,1.9,0,0,0-1.093,3.344l6.928,5.857-2.164,8.808a1.9,1.9,0,0,0,2.841,2.076l7.693-4.786,7.693,4.786a1.9,1.9,0,0,0,2.841-2.076l-2.164-8.808,6.928-5.857A1.892,1.892,0,0,0,201.779,121.841Z" transform="translate(-171.581 -111.613)"/></svg>