<svg xmlns="http://www.w3.org/2000/svg" xmlns:xlink="http://www.w3.org/1999/xlink" width="333" height="428" viewBox="0 0 333 428"><defs><style>.a{stroke:rgba(255,255,255,0);stroke-width:3px;fill:url(#a);}.b{fill:url(#d);}.c{mix-blend-mode:overlay;isolation:isolate;fill:url(#e);}.d{clip-path:url(#f);}.e{opacity:0.6;fill:url(#g);}.f{opacity:0.8;fill:url(#h);}.g{filter:url(#b);}</style><linearGradient id="a" x1="1" y1="1" x2="0" gradientUnits="objectBoundingBox"><stop offset="0" stop-color="#191c1f"/><stop offset="1" stop-color="#111214"/></linearGradient><filter id="b" x="-26" y="-80" width="509" height="608" filterUnits="userSpaceOnUse"><feOffset dx="60" dy="10" input="SourceAlpha"/><feGaussianBlur stdDeviation="30" result="c"/><feFlood flood-opacity="0.239"/><feComposite operator="in" in2="c"/><feComposite in="SourceGraphic"/></filter><linearGradient id="d" x1="1" y1="1" x2="0" gradientUnits="objectBoundingBox"><stop offset="0" stop-color="#313a5a"/><stop offset="1" stop-color="#171928"/></linearGradient><linearGradient id="e" x1="0.5" x2="0.5" y2="1" gradientUnits="objectBoundingBox"><stop offset="0" stop-color="#fff"/><stop offset="1" stop-color="#fff" stop-opacity="0"/></linearGradient><clipPath id="f"><g class="g" transform="matrix(1, 0, 0, 1, 0, 0)"><rect class="a" width="329" height="428" rx="20"/></g></clipPath><linearGradient id="g" x1="0.5" y1="1" x2="0.449" y2="0.416" gradientUnits="objectBoundingBox"><stop offset="0" stop-color="#737780"/><stop offset="1" stop-color="#737780" stop-opacity="0"/></linearGradient><linearGradient id="h" x2="0.354" y2="0.381" gradientUnits="objectBoundingBox"><stop offset="0" stop-color="#3b435d"/><stop offset="1" stop-color="#282b2e" stop-opacity="0"/></linearGradient></defs><g transform="translate(4 61) rotate(-90)"><rect class="b" width="333" height="428" rx="20" transform="translate(61 -4) rotate(90)"/><rect class="c" width="2" height="329"/><g class="d" transform="translate(61) rotate(90)"><path class="e" d="M138.144-7.606c77.861-2.364,139.064,64.521,136.7,149.391s-67.4,155.588-145.26,157.952S-9.48,235.217-7.116,150.346,60.283-5.242,138.144-7.606Z" transform="translate(103.572 151.275) rotate(-17)"/></g><path class="f" d="M313,428H20A20,20,0,0,1,0,408V20A20,20,0,0,1,20,0H313a20,20,0,0,1,20,20V408a20,20,0,0,1-20,20ZM23.7,4.756a20.023,20.023,0,0,0-20,20V403.244a20.023,20.023,0,0,0,20,20H309.3a20.023,20.023,0,0,0,20-20V24.755a20.022,20.022,0,0,0-20-20Z" transform="translate(61 -4) rotate(90)"/></g></svg>