<svg xmlns="http://www.w3.org/2000/svg" xmlns:xlink="http://www.w3.org/1999/xlink" width="176.173" height="172.231" viewBox="0 0 176.173 172.231"><defs><style>.a{fill:url(#a);}.b{fill:#171928;}.c{fill:url(#d);}.d{filter:url(#b);}</style><linearGradient id="a" x1="-0.436" x2="1" gradientUnits="objectBoundingBox"><stop offset="0" stop-color="#26292e" stop-opacity="0"/><stop offset="1" stop-color="#fff"/></linearGradient><filter id="b" x="0" y="0" width="176.173" height="172.231" filterUnits="userSpaceOnUse"><feOffset dx="-10" dy="3" input="SourceAlpha"/><feGaussianBlur stdDeviation="20" result="c"/><feFlood flood-opacity="0.4"/><feComposite operator="in" in2="c"/><feComposite in="SourceGraphic"/></filter><linearGradient id="d" x1="0.257" y1="0.057" x2="0.702" y2="0.954" gradientUnits="objectBoundingBox"><stop offset="0" stop-color="#ebf9ff"/><stop offset="1" stop-color="#6b7075"/></linearGradient></defs><g transform="translate(70 24.479)"><g class="d" transform="matrix(1, 0, 0, 1, -70, -24.48)"><path class="a" d="M93.71,140H50.348A10.359,10.359,0,0,0,40,150.348v31.536a10.359,10.359,0,0,0,10.348,10.348H93.71a2.464,2.464,0,0,0,2.464-2.464v-47.3A2.464,2.464,0,0,0,93.71,140Z" transform="translate(30 -83)"/></g><path class="b" d="M218.232,212H206.406A6.413,6.413,0,0,0,200,218.406v3.942a6.413,6.413,0,0,0,6.406,6.406h11.826a2.464,2.464,0,0,0,2.464-2.464V214.464A2.464,2.464,0,0,0,218.232,212Z" transform="translate(-160.58 -161.739)"/><circle class="c" cx="4.488" cy="4.488" r="4.488" transform="translate(44.246 54.124)"/></g></svg>