<svg xmlns="http://www.w3.org/2000/svg" xmlns:xlink="http://www.w3.org/1999/xlink" width="62.245" height="66.498" viewBox="0 0 62.245 66.498"><defs><style>.a{fill:url(#a);}</style><linearGradient id="a" x1="0.257" y1="0.057" x2="0.702" y2="0.954" gradientUnits="objectBoundingBox"><stop offset="0" stop-color="#0ed8d8"/><stop offset="1" stop-color="#045e60"/></linearGradient></defs><g transform="translate(-146.874 -83.898)"><path class="a" d="M320.83,242.748a4.995,4.995,0,0,1-3.532-8.526,10.988,10.988,0,0,0,0-15.54h0a4.995,4.995,0,1,1,7.064-7.064h0a20.978,20.978,0,0,1,0,29.667h0a4.975,4.975,0,0,1-3.532,1.461Z" transform="translate(-146.166 -109.305)"/><path class="a" d="M354.77,242.712a4.995,4.995,0,0,1-3.532-8.527,34.962,34.962,0,0,0,0-49.445h0a4.995,4.995,0,1,1,7.064-7.063h0a44.952,44.952,0,0,1,0,63.572h0A4.982,4.982,0,0,1,354.77,242.712Z" transform="translate(-162.35 -92.315)"/><circle class="a" cx="6" cy="6" r="6" transform="translate(146.874 111.667)"/></g></svg>