<svg xmlns="http://www.w3.org/2000/svg" xmlns:xlink="http://www.w3.org/1999/xlink" width="556.335" height="690.335" viewBox="0 0 556.335 690.335"><defs><style>.a{opacity:0;}.b,.e{fill:none;}.c{opacity:0.37;fill:url(#a);}.d{fill:url(#b);}.e{stroke:#f0f2f6;stroke-linecap:round;stroke-linejoin:round;stroke-width:3px;}.f{fill:url(#e);}.g{opacity:0.12;fill:url(#f);}.h{opacity:0.5;fill:url(#i);}.i{fill:url(#j);}.j{fill:url(#m);}.k{fill:#fff;font-size:26px;font-family:Poppins-Medium, Poppins;font-weight:500;}.l{filter:url(#ce);}.m{filter:url(#ca);}.n{filter:url(#bw);}.o{filter:url(#bs);}.p{filter:url(#bo);}.q{filter:url(#bk);}.r{filter:url(#bg);}.s{filter:url(#bc);}.t{filter:url(#ay);}.u{filter:url(#au);}.v{filter:url(#aq);}.w{filter:url(#am);}.x{filter:url(#ai);}.y{filter:url(#ae);}.z{filter:url(#aa);}.aa{filter:url(#w);}.ab{filter:url(#s);}.ac{filter:url(#o);}.ad{filter:url(#k);}.ae{filter:url(#g);}.af{filter:url(#c);}</style><linearGradient id="a" x1="0.5" y1="1" x2="0.449" y2="0.416" gradientUnits="objectBoundingBox"><stop offset="0" stop-color="#ebf9ff"/><stop offset="1" stop-color="#ebf9ff" stop-opacity="0"/></linearGradient><linearGradient id="b" x1="0.257" y1="0.057" x2="0.947" y2="1" gradientUnits="objectBoundingBox"><stop offset="0" stop-color="#4b0b0b"/><stop offset="1" stop-color="#6b1e1e"/></linearGradient><filter id="c" x="344.667" y="487.668" width="112" height="112" filterUnits="userSpaceOnUse"><feOffset dy="10" input="SourceAlpha"/><feGaussianBlur stdDeviation="7.5" result="d"/><feFlood flood-opacity="0.239"/><feComposite operator="in" in2="d"/><feComposite in="SourceGraphic"/></filter><linearGradient id="e" x1="0.5" x2="0.539" y2="0.736" gradientUnits="objectBoundingBox"><stop offset="0" stop-color="#d29c9c"/><stop offset="1" stop-color="#651b1b"/></linearGradient><linearGradient id="f" x1="0.5" y1="1" x2="0.5" gradientUnits="objectBoundingBox"><stop offset="0" stop-color="#181a2a"/><stop offset="1" stop-color="#3b435f" stop-opacity="0"/></linearGradient><filter id="g" x="50.401" y="60.401" width="211.531" height="211.531" filterUnits="userSpaceOnUse"><feOffset dy="10" input="SourceAlpha"/><feGaussianBlur stdDeviation="15" result="h"/><feFlood flood-opacity="0.031"/><feComposite operator="in" in2="h"/><feComposite in="SourceGraphic"/></filter><linearGradient id="i" x1="0.5" y1="1" x2="0.449" y2="0.416" gradientUnits="objectBoundingBox"><stop offset="0" stop-color="#737780" stop-opacity="0.561"/><stop offset="1" stop-color="#737780" stop-opacity="0"/></linearGradient><linearGradient id="j" x1="1" y1="1" x2="0" gradientUnits="objectBoundingBox"><stop offset="0" stop-color="#343b58"/><stop offset="1" stop-color="#181a2a"/></linearGradient><filter id="k" x="89.042" y="79.039" width="174.255" height="174.255" filterUnits="userSpaceOnUse"><feOffset dx="20" dy="10" input="SourceAlpha"/><feGaussianBlur stdDeviation="15" result="l"/><feFlood flood-opacity="0.149"/><feComposite operator="in" in2="l"/><feComposite in="SourceGraphic"/></filter><linearGradient id="m" x1="0.137" y1="-0.116" x2="0.33" y2="0.745" gradientUnits="objectBoundingBox"><stop offset="0" stop-color="#444d71"/><stop offset="1" stop-color="#282b2e" stop-opacity="0"/></linearGradient><filter id="o" x="50.401" y="186.401" width="211.531" height="211.531" filterUnits="userSpaceOnUse"><feOffset dy="10" input="SourceAlpha"/><feGaussianBlur stdDeviation="15" result="p"/><feFlood flood-opacity="0.031"/><feComposite operator="in" in2="p"/><feComposite in="SourceGraphic"/></filter><filter id="s" x="89.042" y="205.039" width="174.255" height="174.255" filterUnits="userSpaceOnUse"><feOffset dx="20" dy="10" input="SourceAlpha"/><feGaussianBlur stdDeviation="15" result="t"/><feFlood flood-opacity="0.149"/><feComposite operator="in" in2="t"/><feComposite in="SourceGraphic"/></filter><filter id="w" x="50.401" y="312.401" width="211.531" height="211.531" filterUnits="userSpaceOnUse"><feOffset dy="10" input="SourceAlpha"/><feGaussianBlur stdDeviation="15" result="x"/><feFlood flood-opacity="0.031"/><feComposite operator="in" in2="x"/><feComposite in="SourceGraphic"/></filter><filter id="aa" x="89.042" y="331.039" width="174.255" height="174.255" filterUnits="userSpaceOnUse"><feOffset dx="20" dy="10" input="SourceAlpha"/><feGaussianBlur stdDeviation="15" result="ab"/><feFlood flood-opacity="0.149"/><feComposite operator="in" in2="ab"/><feComposite in="SourceGraphic"/></filter><filter id="ae" x="172.401" y="60.401" width="211.531" height="211.531" filterUnits="userSpaceOnUse"><feOffset dy="10" input="SourceAlpha"/><feGaussianBlur stdDeviation="15" result="af"/><feFlood flood-opacity="0.031"/><feComposite operator="in" in2="af"/><feComposite in="SourceGraphic"/></filter><filter id="ai" x="211.042" y="79.039" width="174.255" height="174.255" filterUnits="userSpaceOnUse"><feOffset dx="20" dy="10" input="SourceAlpha"/><feGaussianBlur stdDeviation="15" result="aj"/><feFlood flood-opacity="0.149"/><feComposite operator="in" in2="aj"/><feComposite in="SourceGraphic"/></filter><filter id="am" x="172.401" y="186.401" width="211.531" height="211.531" filterUnits="userSpaceOnUse"><feOffset dy="10" input="SourceAlpha"/><feGaussianBlur stdDeviation="15" result="an"/><feFlood flood-opacity="0.031"/><feComposite operator="in" in2="an"/><feComposite in="SourceGraphic"/></filter><filter id="aq" x="211.042" y="205.039" width="174.255" height="174.255" filterUnits="userSpaceOnUse"><feOffset dx="20" dy="10" input="SourceAlpha"/><feGaussianBlur stdDeviation="15" result="ar"/><feFlood flood-opacity="0.149"/><feComposite operator="in" in2="ar"/><feComposite in="SourceGraphic"/></filter><filter id="au" x="172.401" y="312.401" width="211.531" height="211.531" filterUnits="userSpaceOnUse"><feOffset dy="10" input="SourceAlpha"/><feGaussianBlur stdDeviation="15" result="av"/><feFlood flood-opacity="0.031"/><feComposite operator="in" in2="av"/><feComposite in="SourceGraphic"/></filter><filter id="ay" x="211.042" y="331.039" width="174.255" height="174.255" filterUnits="userSpaceOnUse"><feOffset dx="20" dy="10" input="SourceAlpha"/><feGaussianBlur stdDeviation="15" result="az"/><feFlood flood-opacity="0.149"/><feComposite operator="in" in2="az"/><feComposite in="SourceGraphic"/></filter><filter id="bc" x="172.401" y="438.401" width="211.531" height="211.531" filterUnits="userSpaceOnUse"><feOffset dy="10" input="SourceAlpha"/><feGaussianBlur stdDeviation="15" result="bd"/><feFlood flood-opacity="0.031"/><feComposite operator="in" in2="bd"/><feComposite in="SourceGraphic"/></filter><filter id="bg" x="211.042" y="457.039" width="174.255" height="174.255" filterUnits="userSpaceOnUse"><feOffset dx="20" dy="10" input="SourceAlpha"/><feGaussianBlur stdDeviation="15" result="bh"/><feFlood flood-opacity="0.149"/><feComposite operator="in" in2="bh"/><feComposite in="SourceGraphic"/></filter><filter id="bk" x="294.401" y="60.401" width="211.531" height="211.531" filterUnits="userSpaceOnUse"><feOffset dy="10" input="SourceAlpha"/><feGaussianBlur stdDeviation="15" result="bl"/><feFlood flood-opacity="0.031"/><feComposite operator="in" in2="bl"/><feComposite in="SourceGraphic"/></filter><filter id="bo" x="333.042" y="79.039" width="174.255" height="174.255" filterUnits="userSpaceOnUse"><feOffset dx="20" dy="10" input="SourceAlpha"/><feGaussianBlur stdDeviation="15" result="bp"/><feFlood flood-opacity="0.149"/><feComposite operator="in" in2="bp"/><feComposite in="SourceGraphic"/></filter><filter id="bs" x="294.401" y="186.401" width="211.531" height="211.531" filterUnits="userSpaceOnUse"><feOffset dy="10" input="SourceAlpha"/><feGaussianBlur stdDeviation="15" result="bt"/><feFlood flood-opacity="0.031"/><feComposite operator="in" in2="bt"/><feComposite in="SourceGraphic"/></filter><filter id="bw" x="333.042" y="205.039" width="174.255" height="174.255" filterUnits="userSpaceOnUse"><feOffset dx="20" dy="10" input="SourceAlpha"/><feGaussianBlur stdDeviation="15" result="bx"/><feFlood flood-opacity="0.149"/><feComposite operator="in" in2="bx"/><feComposite in="SourceGraphic"/></filter><filter id="ca" x="294.401" y="312.401" width="211.531" height="211.531" filterUnits="userSpaceOnUse"><feOffset dy="10" input="SourceAlpha"/><feGaussianBlur stdDeviation="15" result="cb"/><feFlood flood-opacity="0.031"/><feComposite operator="in" in2="cb"/><feComposite in="SourceGraphic"/></filter><filter id="ce" x="333.042" y="331.039" width="174.255" height="174.255" filterUnits="userSpaceOnUse"><feOffset dx="20" dy="10" input="SourceAlpha"/><feGaussianBlur stdDeviation="15" result="cf"/><feFlood flood-opacity="0.149"/><feComposite operator="in" in2="cf"/><feComposite in="SourceGraphic"/></filter></defs><g transform="translate(-120.833 -123.833)"><g class="a" transform="translate(-705.602 24.399)"><circle class="b" cx="42.5" cy="42.5" r="42.5" transform="translate(1184.602 590.602)"/><circle class="c" cx="34.773" cy="34.773" r="34.773" transform="translate(1274.601 645.829) rotate(150)"/><g transform="translate(1193.733 599.733)"><g class="af" transform="matrix(1, 0, 0, 1, -367.3, -500.3)"><circle class="d" cx="33.5" cy="33.5" r="33.5" transform="translate(367.17 500.17)"/></g><g transform="translate(26.034 25.074)"><path class="e" d="M33.628,13.5,18,29.128" transform="translate(-18 -13.5)"/><g transform="translate(0)"><path class="e" d="M18,13.5,33.628,29.128" transform="translate(-18 -13.5)"/></g></g></g><path class="f" d="M33.591,66.4A33.683,33.683,0,0,1,9.84,56.672,33.087,33.087,0,0,1,2.64,46.12a32.946,32.946,0,0,1,0-25.845A33.087,33.087,0,0,1,9.84,9.723,33.936,33.936,0,0,1,46.666,2.608,33.5,33.5,0,0,1,57.343,9.723a33.087,33.087,0,0,1,7.2,10.552,32.946,32.946,0,0,1,0,25.845,33.087,33.087,0,0,1-7.2,10.552A33.683,33.683,0,0,1,33.591,66.4Zm0-64.4A31.427,31.427,0,0,0,2.018,33.2a31.576,31.576,0,0,0,63.148,0A31.427,31.427,0,0,0,33.591,1.993Z" transform="translate(1181.214 620.808) rotate(-30)"/></g><g transform="translate(216 219)"><g class="ae" transform="matrix(1, 0, 0, 1, -95.17, -95.17)"><circle class="g" cx="54.766" cy="54.766" r="54.766" transform="translate(101.4 101.4)"/></g><circle class="h" cx="44.655" cy="44.655" r="44.655" transform="translate(122 77.345) rotate(150)"/><g transform="translate(18.875 18.872)"><g class="ad" transform="matrix(1, 0, 0, 1, -114.04, -114.04)"><circle class="i" cx="42.127" cy="42.127" r="42.127" transform="translate(114.04 114.04)"/></g></g><path class="j" d="M42.128,84.255a42.139,42.139,0,0,1-16.4-80.944,42.138,42.138,0,0,1,32.8,77.634A41.864,41.864,0,0,1,42.128,84.255Zm0-81.727a39.6,39.6,0,1,0,39.6,39.6A39.644,39.644,0,0,0,42.128,2.528Z" transform="translate(3.453 45.581) rotate(-30)"/><text class="k" transform="translate(57 73)"><tspan x="0" y="0">1</tspan></text></g><g transform="translate(216 345)"><g class="ac" transform="matrix(1, 0, 0, 1, -95.17, -221.17)"><circle class="g" cx="54.766" cy="54.766" r="54.766" transform="translate(101.4 227.4)"/></g><circle class="h" cx="44.655" cy="44.655" r="44.655" transform="translate(122 77.345) rotate(150)"/><g transform="translate(18.875 18.872)"><g class="ab" transform="matrix(1, 0, 0, 1, -114.04, -240.04)"><circle class="i" cx="42.127" cy="42.127" r="42.127" transform="translate(114.04 240.04)"/></g></g><path class="j" d="M42.128,84.255a42.139,42.139,0,0,1-16.4-80.944,42.138,42.138,0,0,1,32.8,77.634A41.864,41.864,0,0,1,42.128,84.255Zm0-81.727a39.6,39.6,0,1,0,39.6,39.6A39.644,39.644,0,0,0,42.128,2.528Z" transform="translate(3.453 45.581) rotate(-30)"/><text class="k" transform="translate(53 73)"><tspan x="0" y="0">4</tspan></text></g><g transform="translate(216 471)"><g class="aa" transform="matrix(1, 0, 0, 1, -95.17, -347.17)"><circle class="g" cx="54.766" cy="54.766" r="54.766" transform="translate(101.4 353.4)"/></g><circle class="h" cx="44.655" cy="44.655" r="44.655" transform="translate(122 77.345) rotate(150)"/><g transform="translate(18.875 18.872)"><g class="z" transform="matrix(1, 0, 0, 1, -114.04, -366.04)"><circle class="i" cx="42.127" cy="42.127" r="42.127" transform="translate(114.04 366.04)"/></g></g><path class="j" d="M42.128,84.255a42.139,42.139,0,0,1-16.4-80.944,42.138,42.138,0,0,1,32.8,77.634A41.864,41.864,0,0,1,42.128,84.255Zm0-81.727a39.6,39.6,0,1,0,39.6,39.6A39.644,39.644,0,0,0,42.128,2.528Z" transform="translate(3.453 45.581) rotate(-30)"/><text class="k" transform="translate(54 73)"><tspan x="0" y="0">7</tspan></text></g><g transform="translate(338 219)"><g class="y" transform="matrix(1, 0, 0, 1, -217.17, -95.17)"><circle class="g" cx="54.766" cy="54.766" r="54.766" transform="translate(223.4 101.4)"/></g><circle class="h" cx="44.655" cy="44.655" r="44.655" transform="translate(122 77.345) rotate(150)"/><g transform="translate(18.875 18.872)"><g class="x" transform="matrix(1, 0, 0, 1, -236.04, -114.04)"><circle class="i" cx="42.127" cy="42.127" r="42.127" transform="translate(236.04 114.04)"/></g></g><path class="j" d="M42.128,84.255a42.139,42.139,0,0,1-16.4-80.944,42.138,42.138,0,0,1,32.8,77.634A41.864,41.864,0,0,1,42.128,84.255Zm0-81.727a39.6,39.6,0,1,0,39.6,39.6A39.644,39.644,0,0,0,42.128,2.528Z" transform="translate(3.453 45.581) rotate(-30)"/><text class="k" transform="translate(54 73)"><tspan x="0" y="0">2</tspan></text></g><g transform="translate(338 345)"><g class="w" transform="matrix(1, 0, 0, 1, -217.17, -221.17)"><circle class="g" cx="54.766" cy="54.766" r="54.766" transform="translate(223.4 227.4)"/></g><circle class="h" cx="44.655" cy="44.655" r="44.655" transform="translate(122 77.345) rotate(150)"/><g transform="translate(18.875 18.872)"><g class="v" transform="matrix(1, 0, 0, 1, -236.04, -240.04)"><circle class="i" cx="42.127" cy="42.127" r="42.127" transform="translate(236.04 240.04)"/></g></g><path class="j" d="M42.128,84.255a42.139,42.139,0,0,1-16.4-80.944,42.138,42.138,0,0,1,32.8,77.634A41.864,41.864,0,0,1,42.128,84.255Zm0-81.727a39.6,39.6,0,1,0,39.6,39.6A39.644,39.644,0,0,0,42.128,2.528Z" transform="translate(3.453 45.581) rotate(-30)"/><text class="k" transform="translate(53 73)"><tspan x="0" y="0">5</tspan></text></g><g transform="translate(338 471)"><g class="u" transform="matrix(1, 0, 0, 1, -217.17, -347.17)"><circle class="g" cx="54.766" cy="54.766" r="54.766" transform="translate(223.4 353.4)"/></g><circle class="h" cx="44.655" cy="44.655" r="44.655" transform="translate(122 77.345) rotate(150)"/><g transform="translate(18.875 18.872)"><g class="t" transform="matrix(1, 0, 0, 1, -236.04, -366.04)"><circle class="i" cx="42.127" cy="42.127" r="42.127" transform="translate(236.04 366.04)"/></g></g><path class="j" d="M42.128,84.255a42.139,42.139,0,0,1-16.4-80.944,42.138,42.138,0,0,1,32.8,77.634A41.864,41.864,0,0,1,42.128,84.255Zm0-81.727a39.6,39.6,0,1,0,39.6,39.6A39.644,39.644,0,0,0,42.128,2.528Z" transform="translate(3.453 45.581) rotate(-30)"/><text class="k" transform="translate(53 73)"><tspan x="0" y="0">8</tspan></text></g><g transform="translate(338 597)"><g class="s" transform="matrix(1, 0, 0, 1, -217.17, -473.17)"><circle class="g" cx="54.766" cy="54.766" r="54.766" transform="translate(223.4 479.4)"/></g><circle class="h" cx="44.655" cy="44.655" r="44.655" transform="translate(122 77.345) rotate(150)"/><g transform="translate(18.875 18.872)"><g class="r" transform="matrix(1, 0, 0, 1, -236.04, -492.04)"><circle class="i" cx="42.127" cy="42.127" r="42.127" transform="translate(236.04 492.04)"/></g></g><path class="j" d="M42.128,84.255a42.139,42.139,0,0,1-16.4-80.944,42.138,42.138,0,0,1,32.8,77.634A41.864,41.864,0,0,1,42.128,84.255Zm0-81.727a39.6,39.6,0,1,0,39.6,39.6A39.644,39.644,0,0,0,42.128,2.528Z" transform="translate(3.453 45.581) rotate(-30)"/><text class="k" transform="translate(53 73)"><tspan x="0" y="0">0</tspan></text></g><g transform="translate(460 219)"><g class="q" transform="matrix(1, 0, 0, 1, -339.17, -95.17)"><circle class="g" cx="54.766" cy="54.766" r="54.766" transform="translate(345.4 101.4)"/></g><circle class="h" cx="44.655" cy="44.655" r="44.655" transform="translate(122 77.345) rotate(150)"/><g transform="translate(18.875 18.872)"><g class="p" transform="matrix(1, 0, 0, 1, -358.04, -114.04)"><circle class="i" cx="42.127" cy="42.127" r="42.127" transform="translate(358.04 114.04)"/></g></g><path class="j" d="M42.128,84.255a42.139,42.139,0,0,1-16.4-80.944,42.138,42.138,0,0,1,32.8,77.634A41.864,41.864,0,0,1,42.128,84.255Zm0-81.727a39.6,39.6,0,1,0,39.6,39.6A39.644,39.644,0,0,0,42.128,2.528Z" transform="translate(3.453 45.581) rotate(-30)"/><text class="k" transform="translate(54 73)"><tspan x="0" y="0">3</tspan></text></g><g transform="translate(460 345)"><g class="o" transform="matrix(1, 0, 0, 1, -339.17, -221.17)"><circle class="g" cx="54.766" cy="54.766" r="54.766" transform="translate(345.4 227.4)"/></g><circle class="h" cx="44.655" cy="44.655" r="44.655" transform="translate(122 77.345) rotate(150)"/><g transform="translate(18.875 18.872)"><g class="n" transform="matrix(1, 0, 0, 1, -358.04, -240.04)"><circle class="i" cx="42.127" cy="42.127" r="42.127" transform="translate(358.04 240.04)"/></g></g><path class="j" d="M42.128,84.255a42.139,42.139,0,0,1-16.4-80.944,42.138,42.138,0,0,1,32.8,77.634A41.864,41.864,0,0,1,42.128,84.255Zm0-81.727a39.6,39.6,0,1,0,39.6,39.6A39.644,39.644,0,0,0,42.128,2.528Z" transform="translate(3.453 45.581) rotate(-30)"/><text class="k" transform="translate(53 73)"><tspan x="0" y="0">6</tspan></text></g><g transform="translate(460 471)"><g class="m" transform="matrix(1, 0, 0, 1, -339.17, -347.17)"><circle class="g" cx="54.766" cy="54.766" r="54.766" transform="translate(345.4 353.4)"/></g><circle class="h" cx="44.655" cy="44.655" r="44.655" transform="translate(122 77.345) rotate(150)"/><g transform="translate(18.875 18.872)"><g class="l" transform="matrix(1, 0, 0, 1, -358.04, -366.04)"><circle class="i" cx="42.127" cy="42.127" r="42.127" transform="translate(358.04 366.04)"/></g></g><path class="j" d="M42.128,84.255a42.139,42.139,0,0,1-16.4-80.944,42.138,42.138,0,0,1,32.8,77.634A41.864,41.864,0,0,1,42.128,84.255Zm0-81.727a39.6,39.6,0,1,0,39.6,39.6A39.644,39.644,0,0,0,42.128,2.528Z" transform="translate(3.453 45.581) rotate(-30)"/><text class="k" transform="translate(53 73)"><tspan x="0" y="0">9</tspan></text></g></g></svg>