<svg xmlns="http://www.w3.org/2000/svg" xmlns:xlink="http://www.w3.org/1999/xlink" width="314.876" height="361.316" viewBox="0 0 314.876 361.316"><defs><style>.a{fill:url(#a);}.b{fill:#171928;}.c{fill:#f6f6f6;}.d{filter:url(#b);}</style><linearGradient id="a" x1="1.226" y1="1.192" x2="-0.06" y2="-0.087" gradientUnits="objectBoundingBox"><stop offset="0" stop-color="#26292e" stop-opacity="0"/><stop offset="1" stop-color="#fff"/></linearGradient><filter id="b" x="0" y="0" width="314.876" height="361.316" filterUnits="userSpaceOnUse"><feOffset dx="-10" dy="3" input="SourceAlpha"/><feGaussianBlur stdDeviation="20" result="c"/><feFlood flood-opacity="0.4"/><feComposite operator="in" in2="c"/><feComposite in="SourceGraphic"/></filter></defs><g transform="translate(159.686 56.605) rotate(25)"><g class="d" transform="matrix(0.91, -0.42, 0.42, 0.91, -168.65, 16.19)"><rect class="a" width="116.108" height="212.12" rx="9" transform="translate(159.65 57) rotate(25)"/></g><path class="b" d="M261.92,8h-103a7.006,7.006,0,0,0-7,6.887V31.957L268.2,31.823V14.752C268.2,10.977,265.713,8,261.92,8Z" transform="translate(-151.926 -8)"/><path class="b" d="M152,460.619a6.865,6.865,0,0,0,6.865,6.865H261.839a6.865,6.865,0,0,0,6.865-6.865V440.043H152Z" transform="translate(-151.844 -254.772)"/><g transform="translate(47.82 10.111)"><path class="c" d="M281.518,470.886h-15a3.432,3.432,0,1,1,0-6.865h15a3.432,3.432,0,0,1,0,6.865Z" transform="translate(-263.087 -278.574)"/><circle class="c" cx="3.432" cy="3.432" r="3.432" transform="translate(7.257)"/></g></g></svg>