<svg xmlns="http://www.w3.org/2000/svg" xmlns:xlink="http://www.w3.org/1999/xlink" width="397" height="430" viewBox="0 0 397 430"><defs><style>.a{fill:url(#a);}.b{fill:#242942;}.c{clip-path:url(#d);}.d{fill:#171928;}.e{fill:url(#e);}.f{fill:#0ed8d8;}.g,.k,.l,.n{fill:none;}.g{stroke:#171928;stroke-linecap:round;stroke-width:2px;}.h{opacity:0;}.i{fill:url(#k);}.j{clip-path:url(#n);}.k{stroke:#08090d;}.k,.l{stroke-width:5px;}.l{stroke:#3e4c68;}.m{stroke:none;}.o{filter:url(#l);}.p{filter:url(#i);}.q{filter:url(#f);}.r{filter:url(#b);}</style><linearGradient id="a" x1="1" y1="1" x2="0" gradientUnits="objectBoundingBox"><stop offset="0" stop-color="#26292e"/><stop offset="1" stop-color="#121416"/></linearGradient><filter id="b" x="-30" y="-80" width="577" height="610" filterUnits="userSpaceOnUse"><feOffset dx="60" dy="10" input="SourceAlpha"/><feGaussianBlur stdDeviation="30" result="c"/><feFlood flood-opacity="0.239"/><feComposite operator="in" in2="c"/><feComposite in="SourceGraphic"/></filter><clipPath id="d"><g class="r" transform="matrix(1, 0, 0, 1, 0, 0)"><rect class="a" width="397" height="430" rx="51" transform="translate(645.4 263.14)"/></g></clipPath><linearGradient id="e" x1="1.542" y1="1.704" x2="0.135" y2="0.084" gradientUnits="objectBoundingBox"><stop offset="0" stop-color="#26292e" stop-opacity="0"/><stop offset="1" stop-color="#fff"/></linearGradient><filter id="f" x="53" y="-120.999" width="274" height="295" filterUnits="userSpaceOnUse"><feOffset dx="-10" dy="3" input="SourceAlpha"/><feGaussianBlur stdDeviation="20" result="g"/><feFlood flood-opacity="0.4"/><feComposite operator="in" in2="g"/><feComposite in="SourceGraphic"/></filter><filter id="i" x="53" y="390.001" width="274" height="295" filterUnits="userSpaceOnUse"><feOffset dx="-10" dy="3" input="SourceAlpha"/><feGaussianBlur stdDeviation="20" result="j"/><feFlood flood-opacity="0.4"/><feComposite operator="in" in2="j"/><feComposite in="SourceGraphic"/></filter><linearGradient id="k" x1="1" y1="1" x2="0" y2="1" gradientUnits="objectBoundingBox"><stop offset="0" stop-color="#171928" stop-opacity="0"/><stop offset="0.364" stop-color="#171928"/><stop offset="0.502" stop-color="#171928"/><stop offset="0.632" stop-color="#171928"/><stop offset="1" stop-color="#171928" stop-opacity="0"/></linearGradient><filter id="l" x="-12" y="-10" width="424" height="153" filterUnits="userSpaceOnUse"><feOffset dy="3" input="SourceAlpha"/><feGaussianBlur stdDeviation="3" result="m"/><feFlood flood-opacity="0.4"/><feComposite operator="in" in2="m"/><feComposite in="SourceGraphic"/></filter><clipPath id="n"><rect class="b" width="397" height="429" rx="51" transform="translate(231.166 97)"/></clipPath></defs><g transform="translate(-205 -169.999)"><g class="c" transform="translate(1247.396 863.137) rotate(180)"><g transform="translate(980.78 633.001) rotate(180)"><rect class="d" width="416" height="155" rx="6" transform="translate(-68.615 -64.137)"/><g transform="translate(-283.615 -421.136)"><g class="q" transform="matrix(1, 0, 0, 1, 222, 361)"><path class="e" d="M0,0H154V175l-19.681-11.089L115.679,175,96.271,163.911,77.462,175,57.089,163.911,38.7,175,19.364,163.911,0,175Z" transform="translate(123 -64)"/></g><rect class="f" width="106" height="8" rx="4" transform="translate(370 334)"/><line class="g" x2="39.697" transform="translate(370.5 375.5)"/><line class="g" x2="78.824" transform="translate(370.5 390.5)"/><line class="g" x2="16.684" transform="translate(459.641 390.5)"/><line class="g" x2="78.824" transform="translate(370.5 405.5)"/><line class="g" x2="16.684" transform="translate(459.641 405.5)"/><line class="g" x2="78.824" transform="translate(370.5 420.5)"/><line class="g" x2="16.684" transform="translate(459.641 420.5)"/></g><g class="h" transform="translate(-283.615 89.864)"><g class="p" transform="matrix(1, 0, 0, 1, 222, -150)"><path class="e" d="M0,0H154V175l-19.681-11.089L115.679,175,96.271,163.911,77.462,175,57.089,163.911,38.7,175,19.364,163.911,0,175Z" transform="translate(123 447)"/></g><rect class="f" width="106" height="8" rx="4" transform="translate(370 334)"/><line class="g" x2="39.697" transform="translate(370.5 375.5)"/><line class="g" x2="78.824" transform="translate(370.5 390.5)"/><line class="g" x2="16.684" transform="translate(459.641 390.5)"/><line class="g" x2="78.824" transform="translate(370.5 405.5)"/><line class="g" x2="16.684" transform="translate(459.641 405.5)"/><line class="g" x2="78.824" transform="translate(370.5 420.5)"/><line class="g" x2="16.684" transform="translate(459.641 420.5)"/></g><g class="o" transform="matrix(1, 0, 0, 1, -61.62, -60.14)"><path class="i" d="M6,0H400a6,6,0,0,1,6,6V135a0,0,0,0,1,0,0H0a0,0,0,0,1,0,0V6A6,6,0,0,1,6,0Z" transform="translate(-3 -4)"/></g><rect class="d" width="416" height="135" rx="6" transform="translate(-68.615 -64.137)"/></g></g><g class="j" transform="translate(-26.166 73)"><g class="k" transform="translate(231.166 97)"><rect class="m" width="410" height="524" rx="61"/><rect class="n" x="2.5" y="2.5" width="405" height="519" rx="58.5"/></g><g class="l" transform="translate(203.166 10)"><rect class="m" width="432" height="519" rx="61"/><rect class="n" x="2.5" y="2.5" width="427" height="514" rx="58.5"/></g></g></g></svg>