<svg xmlns="http://www.w3.org/2000/svg" xmlns:xlink="http://www.w3.org/1999/xlink" width="274" height="295" viewBox="0 0 274 295"><defs><style>.a{fill:url(#a);}.b{fill:#0ed8d8;}.c{fill:none;stroke:#171928;stroke-linecap:round;stroke-width:2px;}.d{filter:url(#b);}</style><linearGradient id="a" x1="1.542" y1="1.704" x2="0.135" y2="0.084" gradientUnits="objectBoundingBox"><stop offset="0" stop-color="#26292e" stop-opacity="0"/><stop offset="1" stop-color="#fff"/></linearGradient><filter id="b" x="0" y="0" width="274" height="295" filterUnits="userSpaceOnUse"><feOffset dx="-10" dy="3" input="SourceAlpha"/><feGaussianBlur stdDeviation="20" result="c"/><feFlood flood-opacity="0.4"/><feComposite operator="in" in2="c"/><feComposite in="SourceGraphic"/></filter></defs><g transform="translate(-275 -240)"><g class="d" transform="matrix(1, 0, 0, 1, 275, 240)"><path class="a" d="M0,0H154V175l-19.681-11.089L115.679,175,96.271,163.911,77.462,175,57.089,163.911,38.7,175,19.364,163.911,0,175Z" transform="translate(70 57)"/></g><rect class="b" width="106" height="8" rx="4" transform="translate(370 334)"/><line class="c" x2="39.697" transform="translate(370.5 375.5)"/><line class="c" x2="78.824" transform="translate(370.5 390.5)"/><line class="c" x2="16.684" transform="translate(459.641 390.5)"/><line class="c" x2="78.824" transform="translate(370.5 405.5)"/><line class="c" x2="16.684" transform="translate(459.641 405.5)"/><line class="c" x2="78.824" transform="translate(370.5 420.5)"/><line class="c" x2="16.684" transform="translate(459.641 420.5)"/></g></svg>