<svg xmlns="http://www.w3.org/2000/svg" xmlns:xlink="http://www.w3.org/1999/xlink" width="386" height="386" viewBox="0 0 386 386"><defs><style>.a{stroke:rgba(255,255,255,0);stroke-width:3px;fill:url(#a);}.b{fill:url(#d);}.c{isolation:isolate;}.d{fill:url(#e);}.e{opacity:0.8;fill:url(#ar);}.f{clip-path:url(#as);}.g{opacity:0.6;fill:url(#at);}.h{filter:url(#v);}.i{filter:url(#b);}</style><linearGradient id="a" x1="1" y1="1" x2="0" gradientUnits="objectBoundingBox"><stop offset="0" stop-color="#191c1f"/><stop offset="1" stop-color="#111214"/></linearGradient><filter id="b" x="-30" y="-80" width="566" height="566" filterUnits="userSpaceOnUse"><feOffset dx="60" dy="10" input="SourceAlpha"/><feGaussianBlur stdDeviation="30" result="c"/><feFlood flood-opacity="0.239"/><feComposite operator="in" in2="c"/><feComposite in="SourceGraphic"/></filter><linearGradient id="d" x1="1" y1="1" x2="0" gradientUnits="objectBoundingBox"><stop offset="0" stop-color="#313a5a"/><stop offset="1" stop-color="#171928"/></linearGradient><linearGradient id="e" x1="0.5" x2="0.5" y2="1" gradientUnits="objectBoundingBox"><stop offset="0" stop-color="#045e60"/><stop offset="1" stop-color="#0ed8d8"/></linearGradient><filter id="v" x="90.524" y="273.149" width="60.345" height="60.345" filterUnits="userSpaceOnUse"><feOffset dy="3" input="SourceAlpha"/><feGaussianBlur stdDeviation="3" result="w"/><feFlood flood-opacity="0.161"/><feComposite operator="in" in2="w"/><feComposite in="SourceGraphic"/></filter><linearGradient id="ar" x2="0.354" y2="0.381" gradientUnits="objectBoundingBox"><stop offset="0" stop-color="#3b435d"/><stop offset="1" stop-color="#282b2e" stop-opacity="0"/></linearGradient><clipPath id="as"><g class="i" transform="matrix(1, 0, 0, 1, 0, 0)"><rect class="a" width="386" height="386" rx="20"/></g></clipPath><linearGradient id="at" x1="0.5" y1="1" x2="0.449" y2="0.416" gradientUnits="objectBoundingBox"><stop offset="0" stop-color="#737780"/><stop offset="1" stop-color="#737780" stop-opacity="0"/></linearGradient></defs><rect class="b" width="386" height="386" rx="20"/><g class="c" transform="translate(71.482 64.334)"><path class="d" d="M151.344,188.132a11.339,11.339,0,0,1-7.057-2.425,11.6,11.6,0,0,1-4.373-7.664l-1.429-11.387A11.542,11.542,0,0,1,148.53,153.8l9.872-1.212a11.608,11.608,0,0,1,12.9,10.045l1.429,11.387a11.542,11.542,0,0,1-10.045,12.859l-9.872,1.212C152.3,188.089,151.821,188.132,151.344,188.132Zm8.486-34.854c-.433,0-.866.043-1.342.087l-9.872,1.212a10.669,10.669,0,0,0-9.266,11.907l1.429,11.387a10.548,10.548,0,0,0,4.027,7.1,10.743,10.743,0,0,0,7.88,2.165l9.872-1.212a10.669,10.669,0,0,0,9.266-11.907L170.4,162.63A10.651,10.651,0,0,0,159.831,153.278Z" transform="translate(-98.45 -122.562)"/><path class="d" d="M134.444,187.251a11.339,11.339,0,0,1-7.057-2.425,11.6,11.6,0,0,1-4.373-7.664l-1.429-11.387a11.542,11.542,0,0,1,10.045-12.859l24.376-3.031a11.608,11.608,0,0,1,12.9,10.045l1.429,11.43A11.38,11.38,0,0,1,168,179.89a11.6,11.6,0,0,1-7.664,4.373l-24.376,3.031A8.989,8.989,0,0,0,134.444,187.251Zm22.991-36.673c-.433,0-.866.043-1.342.087L131.717,153.7a10.669,10.669,0,0,0-9.266,11.907l1.429,11.387a10.548,10.548,0,0,0,4.027,7.1,10.743,10.743,0,0,0,7.88,2.165l24.376-3.031.043.433-.043-.433a10.548,10.548,0,0,0,7.1-4.027,10.742,10.742,0,0,0,2.165-7.88L168,159.887A10.654,10.654,0,0,0,157.435,150.578Z" transform="translate(-88.867 -121.031)"/><rect class="d" width="31.823" height="0.866" transform="matrix(0.994, -0.108, 0.108, 0.994, 40.427, 41.014)"/><rect class="d" width="31.131" height="0.866" transform="matrix(0.993, -0.114, 0.114, 0.993, 42.866, 58.519)"/><path class="d" d="M108.551,164.108l-.52,1.472c0,.043-.043.043-.087.043l-12.6-4.59a.512.512,0,0,1-.3-.693l.39-1a.512.512,0,0,1,.693-.3l12.166,4.46C108.508,163.5,108.637,163.8,108.551,164.108Z" transform="translate(-73.841 -126.248)"/><path class="d" d="M123.4,200.2l-.736.043a1.073,1.073,0,0,1-1.169-.952l-1.3-14.678a1.073,1.073,0,0,1,.953-1.169l.736-.043a1.073,1.073,0,0,1,1.169.953l1.3,14.678A1.043,1.043,0,0,1,123.4,200.2Z" transform="translate(-88.128 -140.081)"/><path class="d" d="M229.9,185.4l-.736.043a1.073,1.073,0,0,1-1.169-.953l-1.3-14.678a1.073,1.073,0,0,1,.953-1.169l.736-.043a1.073,1.073,0,0,1,1.169.953l1.3,14.678A1.017,1.017,0,0,1,229.9,185.4Z" transform="translate(-148.516 -131.689)"/><path class="d" d="M48.457,100.669l33.9-5.369.866,5.455-33.9,5.369a2.724,2.724,0,0,1-3.161-2.295h0A2.811,2.811,0,0,1,48.457,100.669Z" transform="translate(-46.134 -90.13)"/><rect class="d" width="10.608" height="166.477" transform="matrix(0.992, -0.124, 0.124, 0.992, 48.626, 18.582)"/><path class="d" d="M107.149,97.058,106.5,88.4s15.544-6.321,26.8-4.806a12.878,12.878,0,0,1,11,9.828c.693,3.074.13,6.581-4.373,8.7a13.185,13.185,0,0,1-7.4,1.082,20.235,20.235,0,0,1-7.187-2.468,31.507,31.507,0,0,0-12.383-4.113C110.527,96.365,108.275,96.409,107.149,97.058Z" transform="translate(-80.363 -83.358)"/><circle class="d" cx="3.637" cy="3.637" r="3.637" transform="translate(49.257 6.383)"/><g transform="translate(182.699 214.555)"><circle class="d" cx="21.172" cy="21.172" r="21.172" transform="translate(0.216 0.26)"/><path class="d" d="M489.489,621.677a21.389,21.389,0,1,1,21.389-21.389A21.407,21.407,0,0,1,489.489,621.677Zm0-42.3a20.956,20.956,0,1,0,20.956,20.956A20.973,20.973,0,0,0,489.489,579.376Z" transform="translate(-468.1 -578.9)"/></g><g transform="translate(187.591 219.491)"><circle class="d" cx="16.28" cy="16.28" r="16.28" transform="translate(0.216 0.216)"/><path class="d" d="M495.9,623.292a16.5,16.5,0,1,1,16.5-16.5A16.52,16.52,0,0,1,495.9,623.292Zm0-32.6a16.063,16.063,0,1,0,16.063,16.063A16.085,16.085,0,0,0,495.9,590.69Z" transform="translate(-479.4 -590.3)"/></g><path class="d" d="M429.4,537.279l-125.042,19.83a.641.641,0,0,1-.736-.52l-1.126-7.231a.641.641,0,0,1,.52-.736l125.042-19.83a.641.641,0,0,1,.736.519l1.126,7.231A.611.611,0,0,1,429.4,537.279Z" transform="translate(-191.494 -335.929)"/><g transform="translate(27.825 214.555)"><g class="h" transform="matrix(1, 0, 0, 1, -99.31, -278.89)"><circle class="d" cx="21.172" cy="21.172" r="21.172" transform="translate(99.52 279.15)"/></g><path class="d" d="M131.789,621.677a21.389,21.389,0,1,1,21.389-21.389A21.407,21.407,0,0,1,131.789,621.677Zm0-42.3a20.956,20.956,0,1,0,20.956,20.956A20.973,20.973,0,0,0,131.789,579.376Z" transform="translate(-110.4 -578.9)"/></g><g transform="translate(32.718 219.491)"><circle class="d" cx="16.28" cy="16.28" r="16.28" transform="translate(0.216 0.216)"/><path class="d" d="M138.2,623.292a16.5,16.5,0,1,1,16.5-16.5A16.519,16.519,0,0,1,138.2,623.292Zm0-32.6a16.063,16.063,0,1,0,16.063,16.063A16.085,16.085,0,0,0,138.2,590.69Z" transform="translate(-121.7 -590.3)"/></g><path class="d" d="M144,532.709l1.775,23.6a15.67,15.67,0,0,0,.953,5.2,6.068,6.068,0,0,0,7.014,3.55l12.3-2.944L160.972,507.9Z" transform="translate(-101.627 -324.086)"/><path class="d" d="M257.388,576.1,243.1,578.914l3.81,15.89,12.08-8.4Z" transform="translate(-157.82 -362.757)"/><path class="d" d="M287.444,574l-11.344.909,1.6,10.3,11.517-1.775Z" transform="translate(-176.531 -361.566)"/><path class="d" d="M207.663,494.1l-23.77,4.2-.693,1.732,5.066,54.208,24.679-5.932Z" transform="translate(-123.854 -316.261)"/><path class="d" d="M214.378,493.795l-13.206,2.078a.641.641,0,0,1-.736-.52l-.043-.346a.641.641,0,0,1,.52-.736l13.206-2.078a.641.641,0,0,1,.736.52l.043.346A.666.666,0,0,1,214.378,493.795Z" transform="translate(-133.6 -315.176)"/><circle class="d" cx="1.645" cy="1.645" r="1.645" transform="translate(105.847 216.417)"/><circle class="d" cx="1.602" cy="1.602" r="1.602" transform="translate(208.591 199.661)"/><path class="d" d="M505.994,570.9l-1.6,25.589c-.26,4.373,8.053,6.148,10.132,2.251L527.08,570.9Z" transform="translate(-305.976 -359.809)"/><path class="d" d="M485.6,557.832l38.058-5.932v5.759a3.529,3.529,0,0,1-3.55,3.507l-31.693-.433a2.883,2.883,0,0,1-2.814-2.9Z" transform="translate(-295.324 -349.035)"/><path class="d" d="M557.267,536.5l-33.9,5.369-.866-5.455,33.9-5.369a2.724,2.724,0,0,1,3.161,2.295h0A2.746,2.746,0,0,1,557.267,536.5Z" transform="translate(-316.247 -337.189)"/><circle class="d" cx="2.641" cy="2.641" r="2.641" transform="translate(46.573 233.346)"/><circle class="d" cx="2.641" cy="2.641" r="2.641" transform="translate(201.447 233.346)"/><circle class="d" cx="1.645" cy="1.645" r="1.645" transform="translate(208.894 199.618)"/><path class="d" d="M523.4,553.195l-38.231,6.062a.641.641,0,0,1-.736-.52l-.043-.346a.641.641,0,0,1,.52-.736l38.231-6.062a.641.641,0,0,1,.736.52l.043.346A.611.611,0,0,1,523.4,553.195Z" transform="translate(-294.636 -348.858)"/><rect class="d" width="2.251" height="55.16" transform="matrix(0.995, -0.104, 0.104, 0.995, 81.69, 178.067)"/><path class="d" d="M219.207,619.434l-24.766,5.715a.645.645,0,0,1-.779-.476l-.087-.3a.645.645,0,0,1,.476-.779l24.766-5.715a.646.646,0,0,1,.779.476l.087.3A.645.645,0,0,1,219.207,619.434Z" transform="translate(-129.727 -386.434)"/><circle class="d" cx="1.689" cy="1.689" r="1.689" transform="translate(72.551 182.862)"/></g><path class="e" d="M366,386H20A20,20,0,0,1,0,366V20A20,20,0,0,1,20,0H366a20,20,0,0,1,20,20V366a20,20,0,0,1-20,20ZM24.291,4.291a20.022,20.022,0,0,0-20,20v337.42a20.022,20.022,0,0,0,20,20h337.42a20.022,20.022,0,0,0,20-20V24.291a20.022,20.022,0,0,0-20-20Z"/><g class="f"><path class="g" d="M154.539,2.038c85.35,1.126,155.452,68.522,156.578,150.534s-67.151,147.583-152.5,146.457S3.164,230.507,2.038,148.5,69.19.913,154.539,2.038Z" transform="translate(99.92 144.008) rotate(-17)"/></g></svg>