<svg xmlns="http://www.w3.org/2000/svg" xmlns:xlink="http://www.w3.org/1999/xlink" width="270" height="270" viewBox="0 0 270 270"><defs><style>.a,.c,.f{fill:none;}.a,.c{stroke:#fff;}.a{stroke-width:3px;opacity:0.6;}.a,.b{mix-blend-mode:overlay;}.a,.b,.d{isolation:isolate;}.d{mix-blend-mode:darken;}.e{stroke:none;}.g{filter:url(#f);}.h{filter:url(#d);}</style><linearGradient id="a" x1="1" y1="1" x2="0" gradientUnits="objectBoundingBox"><stop offset="0" stop-color="#191c1f"/><stop offset="1" stop-color="#111214"/></linearGradient><filter id="b" x="-30" y="-80" width="450" height="450" filterUnits="userSpaceOnUse"><feOffset dx="60" dy="10" input="SourceAlpha"/><feGaussianBlur stdDeviation="30" result="c"/><feFlood flood-opacity="0.239"/><feComposite operator="in" in2="c"/><feComposite in="SourceGraphic"/></filter><filter id="d" x="60.115" y="188.759" width="48.619" height="48.619" filterUnits="userSpaceOnUse"><feOffset dy="3" input="SourceAlpha"/><feGaussianBlur stdDeviation="3" result="e"/><feFlood flood-opacity="0.161"/><feComposite operator="in" in2="e"/><feComposite in="SourceGraphic"/></filter><filter id="f" x="60.115" y="188.759" width="48.619" height="48.619" filterUnits="userSpaceOnUse"><feOffset dy="3" input="SourceAlpha"/><feGaussianBlur stdDeviation="3" result="g"/><feFlood flood-opacity="0.161"/><feComposite operator="in" in2="g"/><feComposite in="SourceGraphic"/></filter></defs><g class="a"><rect class="e" width="270" height="270" rx="20"/><rect class="f" x="1.5" y="1.5" width="267" height="267" rx="18.5"/></g><g class="b" transform="translate(50 45)"><path class="c" d="M147.454,177.423a7.931,7.931,0,0,1-4.937-1.7,8.111,8.111,0,0,1-3.059-5.361l-1-7.965a8.074,8.074,0,0,1,7.026-8.995l6.905-.848a8.12,8.12,0,0,1,9.025,7.026l1,7.965a8.074,8.074,0,0,1-7.026,8.995l-6.905.848C148.12,177.393,147.787,177.423,147.454,177.423Zm5.936-24.38c-.3,0-.606.03-.939.061l-6.905.848a7.463,7.463,0,0,0-6.481,8.329l1,7.965a7.378,7.378,0,0,0,2.817,4.967,7.514,7.514,0,0,0,5.512,1.514l6.905-.848a7.463,7.463,0,0,0,6.481-8.329l-1-7.965A7.45,7.45,0,0,0,153.39,153.043Z" transform="translate(-110.455 -131.558)"/><path class="c" d="M130.554,176a7.931,7.931,0,0,1-4.937-1.7,8.111,8.111,0,0,1-3.059-5.361l-1-7.965a8.074,8.074,0,0,1,7.026-8.995l17.051-2.12a8.12,8.12,0,0,1,9.025,7.026l1,8a7.96,7.96,0,0,1-1.635,5.966,8.111,8.111,0,0,1-5.361,3.059l-17.051,2.12A6.286,6.286,0,0,0,130.554,176Zm16.082-25.652c-.3,0-.606.03-.939.061l-17.051,2.12a7.463,7.463,0,0,0-6.481,8.329l1,7.965a7.378,7.378,0,0,0,2.817,4.967,7.514,7.514,0,0,0,5.512,1.514l17.051-2.12.03.3-.03-.3a7.378,7.378,0,0,0,4.967-2.817,7.514,7.514,0,0,0,1.514-5.512l-1-8A7.452,7.452,0,0,0,146.635,150.343Z" transform="translate(-98.673 -129.676)"/><rect class="c" width="22.26" height="0.606" transform="matrix(0.994, -0.108, 0.108, 0.994, 28.278, 28.689)"/><rect class="c" width="21.775" height="0.606" transform="matrix(0.993, -0.114, 0.114, 0.993, 29.984, 40.933)"/><path class="c" d="M104.478,162.572l-.363,1.03c0,.03-.03.03-.061.03l-8.813-3.21a.358.358,0,0,1-.212-.485l.273-.7a.358.358,0,0,1,.485-.212l8.51,3.119C104.448,162.148,104.539,162.36,104.478,162.572Z" transform="translate(-80.199 -136.09)"/><path class="c" d="M122.436,195.146l-.515.03a.75.75,0,0,1-.818-.666l-.909-10.267a.75.75,0,0,1,.666-.818l.515-.03a.75.75,0,0,1,.818.666l.909,10.267A.73.73,0,0,1,122.436,195.146Z" transform="translate(-97.764 -153.097)"/><path class="c" d="M228.936,180.346l-.515.03a.75.75,0,0,1-.818-.666l-.909-10.267a.75.75,0,0,1,.666-.818l.515-.03a.75.75,0,0,1,.818.666l.909,10.267A.711.711,0,0,1,228.936,180.346Z" transform="translate(-172.01 -142.779)"/><path class="c" d="M47.759,99.055,71.473,95.3l.606,3.816-23.714,3.755a1.906,1.906,0,0,1-2.211-1.605h0A1.966,1.966,0,0,1,47.759,99.055Z" transform="translate(-46.134 -91.683)"/><rect class="c" width="7.42" height="116.448" transform="matrix(0.992, -0.124, 0.124, 0.992, 34.013, 12.998)"/><path class="c" d="M106.954,92.941l-.454-6.057s10.873-4.422,18.747-3.362a9.008,9.008,0,0,1,7.693,6.875,4.986,4.986,0,0,1-3.059,6.087,9.223,9.223,0,0,1-5.179.757,14.154,14.154,0,0,1-5.027-1.726,22.039,22.039,0,0,0-8.662-2.877A7.807,7.807,0,0,0,106.954,92.941Z" transform="translate(-88.218 -83.358)"/><circle class="c" cx="2.544" cy="2.544" r="2.544" transform="translate(34.455 4.465)"/><g transform="translate(127.795 150.078)"><circle class="c" cx="14.81" cy="14.81" r="14.81" transform="translate(0.151 0.182)"/><path class="c" d="M483.061,608.822a14.961,14.961,0,1,1,14.961-14.961A14.974,14.974,0,0,1,483.061,608.822Zm0-29.589a14.658,14.658,0,1,0,14.658,14.658A14.67,14.67,0,0,0,483.061,579.233Z" transform="translate(-468.1 -578.9)"/></g><g transform="translate(131.217 153.53)"><circle class="c" cx="11.387" cy="11.387" r="11.387" transform="translate(0.151 0.151)"/><path class="c" d="M490.939,613.378a11.539,11.539,0,1,1,11.539-11.539A11.555,11.555,0,0,1,490.939,613.378Zm0-22.805a11.236,11.236,0,1,0,11.236,11.236A11.251,11.251,0,0,0,490.939,590.573Z" transform="translate(-479.4 -590.3)"/></g><path class="c" d="M391.258,534.727,303.793,548.6a.448.448,0,0,1-.515-.363l-.787-5.058a.448.448,0,0,1,.363-.515l87.465-13.871a.448.448,0,0,1,.515.363l.787,5.058A.427.427,0,0,1,391.258,534.727Z" transform="translate(-224.849 -393.887)"/><g transform="translate(19.463 150.078)"><g class="h" transform="matrix(1, 0, 0, 1, -69.46, -195.08)"><circle class="c" cx="14.81" cy="14.81" r="14.81" transform="translate(69.61 195.26)"/></g><path class="c" d="M125.361,608.822a14.961,14.961,0,1,1,14.961-14.961A14.974,14.974,0,0,1,125.361,608.822Zm0-29.589a14.658,14.658,0,1,0,14.658,14.658A14.67,14.67,0,0,0,125.361,579.233Z" transform="translate(-110.4 -578.9)"/></g><g transform="translate(22.886 153.53)"><circle class="c" cx="11.387" cy="11.387" r="11.387" transform="translate(0.151 0.151)"/><path class="c" d="M133.239,613.378a11.539,11.539,0,1,1,11.539-11.539A11.555,11.555,0,0,1,133.239,613.378Zm0-22.805a11.236,11.236,0,1,0,11.236,11.236A11.251,11.251,0,0,0,133.239,590.573Z" transform="translate(-121.7 -590.3)"/></g><path class="c" d="M144,525.254l1.242,16.506a10.961,10.961,0,0,0,.666,3.634,4.245,4.245,0,0,0,4.906,2.483l8.6-2.059L155.872,507.9Z" transform="translate(-114.361 -379.325)"/><path class="c" d="M253.094,576.1l-9.994,1.969,2.665,11.115,8.45-5.875Z" transform="translate(-183.448 -426.87)"/><path class="c" d="M284.035,574l-7.935.636,1.121,7.208,8.056-1.242Z" transform="translate(-206.454 -425.406)"/><path class="c" d="M200.311,494.1l-16.627,2.938-.485,1.211,3.543,37.918,17.263-4.149Z" transform="translate(-141.689 -369.704)"/><path class="c" d="M210.173,493.312l-9.237,1.454a.448.448,0,0,1-.515-.363l-.03-.242a.448.448,0,0,1,.363-.515l9.237-1.454a.448.448,0,0,1,.515.363l.03.242A.466.466,0,0,1,210.173,493.312Z" transform="translate(-153.671 -368.371)"/><circle class="c" cx="1.151" cy="1.151" r="1.151" transform="translate(74.038 151.38)"/><circle class="c" cx="1.121" cy="1.121" r="1.121" transform="translate(145.906 139.66)"/><path class="c" d="M505.511,570.9l-1.121,17.9c-.182,3.059,5.633,4.3,7.087,1.575L520.26,570.9Z" transform="translate(-365.602 -423.245)"/><path class="c" d="M485.6,556.049l26.621-4.149v4.028a2.469,2.469,0,0,1-2.483,2.453l-22.169-.3a2.017,2.017,0,0,1-1.969-2.029Z" transform="translate(-352.505 -409.999)"/><path class="c" d="M546.819,534.852l-23.714,3.755-.606-3.816,23.714-3.755a1.906,1.906,0,0,1,2.211,1.605h0A1.921,1.921,0,0,1,546.819,534.852Z" transform="translate(-378.23 -395.435)"/><circle class="c" cx="1.847" cy="1.847" r="1.847" transform="translate(32.577 163.222)"/><circle class="c" cx="1.847" cy="1.847" r="1.847" transform="translate(140.909 163.222)"/><circle class="c" cx="1.151" cy="1.151" r="1.151" transform="translate(146.118 139.629)"/><path class="c" d="M511.678,552.712l-26.742,4.24a.448.448,0,0,1-.515-.363l-.03-.242a.448.448,0,0,1,.363-.515l26.742-4.24a.448.448,0,0,1,.515.364l.03.242A.427.427,0,0,1,511.678,552.712Z" transform="translate(-351.66 -409.781)"/><rect class="c" width="1.575" height="38.584" transform="matrix(0.995, -0.104, 0.104, 0.995, 57.141, 124.555)"/><path class="c" d="M211.5,618.959l-17.323,4a.451.451,0,0,1-.545-.333l-.061-.212a.451.451,0,0,1,.333-.545l17.323-4a.452.452,0,0,1,.545.333l.061.212A.451.451,0,0,1,211.5,618.959Z" transform="translate(-148.908 -455.98)"/><circle class="c" cx="1.181" cy="1.181" r="1.181" transform="translate(50.748 127.909)"/></g><g class="d" transform="translate(50 45)"><path class="c" d="M147.454,177.423a7.931,7.931,0,0,1-4.937-1.7,8.111,8.111,0,0,1-3.059-5.361l-1-7.965a8.074,8.074,0,0,1,7.026-8.995l6.905-.848a8.12,8.12,0,0,1,9.025,7.026l1,7.965a8.074,8.074,0,0,1-7.026,8.995l-6.905.848C148.12,177.393,147.787,177.423,147.454,177.423Zm5.936-24.38c-.3,0-.606.03-.939.061l-6.905.848a7.463,7.463,0,0,0-6.481,8.329l1,7.965a7.378,7.378,0,0,0,2.817,4.967,7.514,7.514,0,0,0,5.512,1.514l6.905-.848a7.463,7.463,0,0,0,6.481-8.329l-1-7.965A7.45,7.45,0,0,0,153.39,153.043Z" transform="translate(-110.455 -131.558)"/><path class="c" d="M130.554,176a7.931,7.931,0,0,1-4.937-1.7,8.111,8.111,0,0,1-3.059-5.361l-1-7.965a8.074,8.074,0,0,1,7.026-8.995l17.051-2.12a8.12,8.12,0,0,1,9.025,7.026l1,8a7.96,7.96,0,0,1-1.635,5.966,8.111,8.111,0,0,1-5.361,3.059l-17.051,2.12A6.286,6.286,0,0,0,130.554,176Zm16.082-25.652c-.3,0-.606.03-.939.061l-17.051,2.12a7.463,7.463,0,0,0-6.481,8.329l1,7.965a7.378,7.378,0,0,0,2.817,4.967,7.514,7.514,0,0,0,5.512,1.514l17.051-2.12.03.3-.03-.3a7.378,7.378,0,0,0,4.967-2.817,7.514,7.514,0,0,0,1.514-5.512l-1-8A7.452,7.452,0,0,0,146.635,150.343Z" transform="translate(-98.673 -129.676)"/><rect class="c" width="22.26" height="0.606" transform="matrix(0.994, -0.108, 0.108, 0.994, 28.278, 28.689)"/><rect class="c" width="21.775" height="0.606" transform="matrix(0.993, -0.114, 0.114, 0.993, 29.984, 40.933)"/><path class="c" d="M104.478,162.572l-.363,1.03c0,.03-.03.03-.061.03l-8.813-3.21a.358.358,0,0,1-.212-.485l.273-.7a.358.358,0,0,1,.485-.212l8.51,3.119C104.448,162.148,104.539,162.36,104.478,162.572Z" transform="translate(-80.199 -136.09)"/><path class="c" d="M122.436,195.146l-.515.03a.75.75,0,0,1-.818-.666l-.909-10.267a.75.75,0,0,1,.666-.818l.515-.03a.75.75,0,0,1,.818.666l.909,10.267A.73.73,0,0,1,122.436,195.146Z" transform="translate(-97.764 -153.097)"/><path class="c" d="M228.936,180.346l-.515.03a.75.75,0,0,1-.818-.666l-.909-10.267a.75.75,0,0,1,.666-.818l.515-.03a.75.75,0,0,1,.818.666l.909,10.267A.711.711,0,0,1,228.936,180.346Z" transform="translate(-172.01 -142.779)"/><path class="c" d="M47.759,99.055,71.473,95.3l.606,3.816-23.714,3.755a1.906,1.906,0,0,1-2.211-1.605h0A1.966,1.966,0,0,1,47.759,99.055Z" transform="translate(-46.134 -91.683)"/><rect class="c" width="7.42" height="116.448" transform="matrix(0.992, -0.124, 0.124, 0.992, 34.013, 12.998)"/><path class="c" d="M106.954,92.941l-.454-6.057s10.873-4.422,18.747-3.362a9.008,9.008,0,0,1,7.693,6.875,4.986,4.986,0,0,1-3.059,6.087,9.223,9.223,0,0,1-5.179.757,14.154,14.154,0,0,1-5.027-1.726,22.039,22.039,0,0,0-8.662-2.877A7.807,7.807,0,0,0,106.954,92.941Z" transform="translate(-88.218 -83.358)"/><circle class="c" cx="2.544" cy="2.544" r="2.544" transform="translate(34.455 4.465)"/><g transform="translate(127.795 150.078)"><circle class="c" cx="14.81" cy="14.81" r="14.81" transform="translate(0.151 0.182)"/><path class="c" d="M483.061,608.822a14.961,14.961,0,1,1,14.961-14.961A14.974,14.974,0,0,1,483.061,608.822Zm0-29.589a14.658,14.658,0,1,0,14.658,14.658A14.67,14.67,0,0,0,483.061,579.233Z" transform="translate(-468.1 -578.9)"/></g><g transform="translate(131.217 153.53)"><circle class="c" cx="11.387" cy="11.387" r="11.387" transform="translate(0.151 0.151)"/><path class="c" d="M490.939,613.378a11.539,11.539,0,1,1,11.539-11.539A11.555,11.555,0,0,1,490.939,613.378Zm0-22.805a11.236,11.236,0,1,0,11.236,11.236A11.251,11.251,0,0,0,490.939,590.573Z" transform="translate(-479.4 -590.3)"/></g><path class="c" d="M391.258,534.727,303.793,548.6a.448.448,0,0,1-.515-.363l-.787-5.058a.448.448,0,0,1,.363-.515l87.465-13.871a.448.448,0,0,1,.515.363l.787,5.058A.427.427,0,0,1,391.258,534.727Z" transform="translate(-224.849 -393.887)"/><g transform="translate(19.463 150.078)"><g class="g" transform="matrix(1, 0, 0, 1, -69.46, -195.08)"><circle class="c" cx="14.81" cy="14.81" r="14.81" transform="translate(69.61 195.26)"/></g><path class="c" d="M125.361,608.822a14.961,14.961,0,1,1,14.961-14.961A14.974,14.974,0,0,1,125.361,608.822Zm0-29.589a14.658,14.658,0,1,0,14.658,14.658A14.67,14.67,0,0,0,125.361,579.233Z" transform="translate(-110.4 -578.9)"/></g><g transform="translate(22.886 153.53)"><circle class="c" cx="11.387" cy="11.387" r="11.387" transform="translate(0.151 0.151)"/><path class="c" d="M133.239,613.378a11.539,11.539,0,1,1,11.539-11.539A11.555,11.555,0,0,1,133.239,613.378Zm0-22.805a11.236,11.236,0,1,0,11.236,11.236A11.251,11.251,0,0,0,133.239,590.573Z" transform="translate(-121.7 -590.3)"/></g><path class="c" d="M144,525.254l1.242,16.506a10.961,10.961,0,0,0,.666,3.634,4.245,4.245,0,0,0,4.906,2.483l8.6-2.059L155.872,507.9Z" transform="translate(-114.361 -379.325)"/><path class="c" d="M253.094,576.1l-9.994,1.969,2.665,11.115,8.45-5.875Z" transform="translate(-183.448 -426.87)"/><path class="c" d="M284.035,574l-7.935.636,1.121,7.208,8.056-1.242Z" transform="translate(-206.454 -425.406)"/><path class="c" d="M200.311,494.1l-16.627,2.938-.485,1.211,3.543,37.918,17.263-4.149Z" transform="translate(-141.689 -369.704)"/><path class="c" d="M210.173,493.312l-9.237,1.454a.448.448,0,0,1-.515-.363l-.03-.242a.448.448,0,0,1,.363-.515l9.237-1.454a.448.448,0,0,1,.515.363l.03.242A.466.466,0,0,1,210.173,493.312Z" transform="translate(-153.671 -368.371)"/><circle class="c" cx="1.151" cy="1.151" r="1.151" transform="translate(74.038 151.38)"/><circle class="c" cx="1.121" cy="1.121" r="1.121" transform="translate(145.906 139.66)"/><path class="c" d="M505.511,570.9l-1.121,17.9c-.182,3.059,5.633,4.3,7.087,1.575L520.26,570.9Z" transform="translate(-365.602 -423.245)"/><path class="c" d="M485.6,556.049l26.621-4.149v4.028a2.469,2.469,0,0,1-2.483,2.453l-22.169-.3a2.017,2.017,0,0,1-1.969-2.029Z" transform="translate(-352.505 -409.999)"/><path class="c" d="M546.819,534.852l-23.714,3.755-.606-3.816,23.714-3.755a1.906,1.906,0,0,1,2.211,1.605h0A1.921,1.921,0,0,1,546.819,534.852Z" transform="translate(-378.23 -395.435)"/><circle class="c" cx="1.847" cy="1.847" r="1.847" transform="translate(32.577 163.222)"/><circle class="c" cx="1.847" cy="1.847" r="1.847" transform="translate(140.909 163.222)"/><circle class="c" cx="1.151" cy="1.151" r="1.151" transform="translate(146.118 139.629)"/><path class="c" d="M511.678,552.712l-26.742,4.24a.448.448,0,0,1-.515-.363l-.03-.242a.448.448,0,0,1,.363-.515l26.742-4.24a.448.448,0,0,1,.515.364l.03.242A.427.427,0,0,1,511.678,552.712Z" transform="translate(-351.66 -409.781)"/><rect class="c" width="1.575" height="38.584" transform="matrix(0.995, -0.104, 0.104, 0.995, 57.141, 124.555)"/><path class="c" d="M211.5,618.959l-17.323,4a.451.451,0,0,1-.545-.333l-.061-.212a.451.451,0,0,1,.333-.545l17.323-4a.452.452,0,0,1,.545.333l.061.212A.451.451,0,0,1,211.5,618.959Z" transform="translate(-148.908 -455.98)"/><circle class="c" cx="1.181" cy="1.181" r="1.181" transform="translate(50.748 127.909)"/></g></svg>