<svg xmlns="http://www.w3.org/2000/svg" xmlns:xlink="http://www.w3.org/1999/xlink" width="109.128" height="116.751" viewBox="0 0 109.128 116.751"><defs><style>.a{opacity:0.08;}.a,.b{fill:url(#a);}</style><linearGradient id="a" x1="0.5" x2="0.5" y2="1" gradientUnits="objectBoundingBox"><stop offset="0" stop-color="#045e60"/><stop offset="1" stop-color="#0ed8d8"/></linearGradient></defs><g transform="translate(-109.342 -287.073) rotate(9)"><circle class="a" cx="29.5" cy="29.5" r="29.5" transform="translate(170 271)"/><g transform="translate(-5.359 -4.92)"><path class="b" d="M0,0H14.214V3.4H0Z" transform="translate(240.063 338.049) rotate(-139)"/><path class="b" d="M35.713,71.453A35.744,35.744,0,0,1,8.435,58.782c-.118-.138-.245-.291-.39-.467A35.714,35.714,0,0,1,33.236.088C34.075.03,34.926,0,35.764,0A35.6,35.6,0,0,1,54.258,5.18l.341.21a35.992,35.992,0,0,1,12.531,13.3,35.506,35.506,0,0,1,3.366,8.807,36.313,36.313,0,0,1,.93,9.815A35.807,35.807,0,0,1,42.262,70.857,36.691,36.691,0,0,1,35.713,71.453Zm.045-64.647h0c-.68,0-1.369.024-2.048.072A28.921,28.921,0,0,0,35.7,64.65c.678,0,1.367-.024,2.046-.072A28.921,28.921,0,0,0,35.758,6.807Z" transform="translate(169.303 269.605)"/><path class="b" d="M5.8,10.759l-1.483.428L1.753,8.956a5.1,5.1,0,1,1,6.7-7.7l2.568,2.232a5.1,5.1,0,0,1,.5,7.2,3.327,3.327,0,0,1-2.582,1.248A5.634,5.634,0,0,1,5.8,10.759Z" transform="translate(238.114 333.419)"/><path class="b" d="M28.246,32.258,0,7.7,2.235,5.133,6.7,0,34.942,24.554a5.1,5.1,0,0,1,1.609,5.073v0l0,0a5.159,5.159,0,0,1-1.105,2.127,5.1,5.1,0,0,1-7.2.5Z" transform="translate(242.436 336.905)"/></g></g></svg>